<?xml version="1.0" encoding="utf-8"?>
<!-- Generator: Adobe Illustrator 23.1.1, SVG Export Plug-In . SVG Version: 6.00 Build 0)  -->
<svg version="1.1" id="Layer_1" xmlns="http://www.w3.org/2000/svg" xmlns:xlink="http://www.w3.org/1999/xlink" x="0px" y="0px"
	 viewBox="0 0 146 116" style="enable-background:new 0 0 146 116;" xml:space="preserve">
<style type="text/css">
	.st0{fill:#F97777;}
	.st1{fill:#FFFFFF;}
</style>
<g>
	<g>
		<path class="st0" d="M146,78.6l-1.7-0.9c-3.9-2-8.2-3.8-12.8-5.3l-0.4-0.2V61.7v-1.1l-1-0.2c-0.6-0.1-1.2-0.2-1.8-0.3l1.4-1.5l1-1
			l-1-1l-3.9-4.2l3-4.9l0.8-1.2l-1.2-0.8l-4.6-3.3l2-5.3l0.5-1.3L125,35l-5.2-2.3l0.9-5.6l0.2-1.4l-1.4-0.3L114,24l-0.2-5.7
			l-0.1-1.4l-1.4-0.1l-5.7-0.2l-1.3-5.6L105,9.7l-1.4,0.2L98,10.8l-2.3-5.2l-0.6-1.3l-1.3,0.5l-5.3,2l-3.3-4.6l-0.8-1.2L83,1.8
			l-4.8,3L74,1l-1-1l-1,1l-4.2,3.9l-4.9-3l-1.2-0.8l-0.8,1.2l-3.3,4.6l-5.3-2l-1.3-0.5l-0.6,1.3L48,10.9l-5.6-0.9l-1.4-0.2l-0.3,1.4
			l-1.3,5.6l-5.7,0.2l-1.4,0.1l-0.1,1.4L32,24l-5.6,1.3L25,25.6l0.2,1.4l0.9,5.6L21,35l-1.3,0.6l0.5,1.3l2,5.3l-4.6,3.3l-1.2,0.8
			l0.8,1.2l3,4.8l-3.9,4.2l-1,1l1,1l1.4,1.5c-0.6,0.1-1.2,0.2-1.8,0.3l-1,0.2v1.1v10.5l-0.4,0.2c-4.6,1.5-8.9,3.3-12.8,5.3L0,78.6
			l1.4,1.2l6.7,5.8L5.4,95.7l-0.7,2.6l2.4-1.1c6.4-2.8,13.4-5,21-6.5l0.5-0.1l3.4,0.8l0.2,5.7l0.1,1.4l1.4,0.1l5.7,0.2l1.3,5.6
			l0.3,1.4l1.4-0.2l5.6-0.9l2.3,5.2l0.6,1.3l1.3-0.5l5.3-2l3.3,4.6l0.8,1.2l1.2-0.8l4.9-3l4.2,3.9l1,1l1-1l4.2-3.9l4.9,3l1.2,0.8
			l0.8-1.2l3.3-4.6l5.3,2l1.3,0.5l0.6-1.3l2.3-5.2l5.6,0.9l1.4,0.2l0.3-1.4l1.3-5.6l5.7-0.2l1.4-0.1l0.1-1.4l0.2-5.7l3.4-0.8
			l0.5,0.1c7.5,1.5,14.6,3.7,21,6.5l2.4,1.1l-0.7-2.6l-2.8-10.1l6.7-5.8L146,78.6z"/>
		<path class="st1" d="M43.6,30.6c-0.1-0.3,0-0.6,0.1-0.8c0.1-0.3,0.3-0.6,0.6-0.8c0.3-0.3,0.6-0.5,0.9-0.6s0.6-0.2,0.9-0.1
			c0.3,0.1,0.6,0.2,0.8,0.4l0.1,0.1c0,0,0,0.1,0,0.1s0,0.1,0,0.1l-0.6,0.6c0,0-0.1,0-0.1,0c0,0-0.1,0-0.1,0l-0.1-0.1
			c-0.2-0.2-0.3-0.2-0.6-0.2c-0.2,0-0.5,0.1-0.7,0.4c-0.2,0.2-0.3,0.3-0.3,0.5c0,0.2,0,0.3,0.2,0.4c0.1,0.1,0.2,0.1,0.3,0.2
			c0.1,0,0.3,0,0.4-0.1c0.2-0.1,0.4-0.2,0.7-0.3c0.4-0.2,0.6-0.3,0.8-0.4c0.2-0.1,0.5-0.1,0.7-0.1s0.5,0.2,0.7,0.4
			c0.3,0.3,0.5,0.7,0.4,1.2c-0.1,0.4-0.3,0.9-0.7,1.3c-0.3,0.3-0.6,0.5-0.9,0.6c-0.3,0.1-0.6,0.2-0.9,0.1c-0.3-0.1-0.5-0.2-0.8-0.4
			l-0.1-0.1c0,0,0-0.1,0-0.1s0-0.1,0-0.1l0.6-0.6c0,0,0.1,0,0.1,0c0,0,0.1,0,0.1,0l0.1,0.1c0.2,0.2,0.3,0.2,0.6,0.2
			c0.2,0,0.5-0.2,0.7-0.4c0.2-0.2,0.3-0.4,0.3-0.6c0-0.2-0.1-0.3-0.2-0.4c-0.1-0.1-0.2-0.1-0.3-0.1c-0.1,0-0.3,0-0.4,0.1
			c-0.2,0.1-0.4,0.2-0.7,0.3c-0.3,0.2-0.6,0.3-0.9,0.4c-0.3,0.1-0.5,0.1-0.8,0.1c-0.3,0-0.5-0.2-0.7-0.4
			C43.8,31.1,43.7,30.9,43.6,30.6z M46.9,26.7C46.8,26.7,46.8,26.6,46.9,26.7c0-0.1,0-0.1,0-0.1l1.7-1.3c0.3-0.2,0.5-0.3,0.8-0.4
			c0.3-0.1,0.6,0,0.8,0.1c0.3,0.1,0.5,0.3,0.7,0.6c0.2,0.3,0.3,0.5,0.4,0.8c0.1,0.3,0,0.6-0.1,0.8c-0.1,0.3-0.3,0.5-0.6,0.7
			l-0.9,0.7c0,0,0,0,0,0.1l1.2,1.5c0,0,0,0.1,0,0.1c0,0,0,0.1,0,0.1l-0.7,0.5c0,0-0.1,0-0.1,0c0,0-0.1,0-0.1,0L46.9,26.7z
			 M48.3,26.7l0.9,1.1c0,0,0,0,0.1,0l0.8-0.6c0.2-0.2,0.3-0.3,0.3-0.5c0-0.2,0-0.4-0.2-0.6c-0.1-0.2-0.3-0.3-0.5-0.3
			c-0.2,0-0.4,0.1-0.6,0.2L48.3,26.7C48.2,26.7,48.2,26.7,48.3,26.7z M51.9,23l-0.8,0.5c0,0,0,0-0.1,0.1c0,0,0,0.1,0,0.1l2.6,4.4
			c0,0,0,0,0.1,0.1c0,0,0.1,0,0.1,0l3-1.8c0,0,0,0,0.1-0.1c0,0,0-0.1,0-0.1l-0.4-0.6c0,0,0,0-0.1-0.1c0,0-0.1,0-0.1,0l-2.1,1.3
			c0,0-0.1,0-0.1,0L52,23C52,23,52,23,51.9,23C52,23,52,23,51.9,23z M57.4,25.8L57,20.5c0-0.1,0-0.1,0.1-0.1l1.1-0.5
			c0.1,0,0.1,0,0.1,0l3.5,4.1l0,0c0,0.1,0,0.1-0.1,0.1l-0.9,0.4c-0.1,0-0.1,0-0.1,0L60.2,24c0,0,0,0-0.1,0l-1.7,0.7c0,0,0,0,0,0.1
			l0.1,0.8c0,0.1,0,0.1-0.1,0.1l-0.9,0.4C57.5,25.9,57.5,25.9,57.4,25.8C57.4,25.9,57.4,25.9,57.4,25.8z M58,21.4l0.3,2.3
			c0,0,0,0.1,0.1,0l1.2-0.5c0,0,0,0,0-0.1L58,21.4C58.1,21.4,58.1,21.4,58,21.4C58.1,21.4,58,21.4,58,21.4z M61.5,18.9
			c-0.2,0.2-0.4,0.4-0.5,0.7c-0.1,0.3-0.1,0.5,0,0.8c0.1,0.3,0.2,0.5,0.4,0.7c0.2,0.2,0.4,0.3,0.7,0.3c0.3,0.1,0.6,0.1,0.9,0.1
			c0.3,0,0.6,0.1,0.7,0.1s0.3,0.1,0.4,0.1c0.1,0.1,0.2,0.2,0.2,0.3c0.1,0.2,0,0.3-0.1,0.5c-0.1,0.2-0.3,0.3-0.5,0.3
			c-0.3,0.1-0.6,0.1-0.8,0c-0.2-0.1-0.4-0.2-0.4-0.4l0-0.1c0,0,0-0.1-0.1-0.1c0,0-0.1,0-0.1,0l-0.8,0.2c0,0-0.1,0-0.1,0.1
			c0,0,0,0.1,0,0.1l0.1,0.2c0.1,0.3,0.2,0.6,0.5,0.7c0.2,0.2,0.5,0.3,0.8,0.4c0.3,0.1,0.7,0,1.1-0.1c0.6-0.2,1-0.4,1.3-0.8
			c0.3-0.4,0.3-0.8,0.2-1.2c-0.1-0.3-0.2-0.5-0.4-0.7c-0.2-0.2-0.4-0.3-0.7-0.3c-0.2-0.1-0.5-0.1-0.9-0.1c-0.4,0-0.6-0.1-0.8-0.1
			c-0.2,0-0.3-0.1-0.4-0.1c-0.1-0.1-0.2-0.2-0.2-0.3c-0.1-0.2,0-0.3,0.1-0.5s0.3-0.2,0.5-0.3c0.3-0.1,0.5-0.1,0.8,0
			c0.2,0.1,0.3,0.3,0.4,0.5l0,0.1c0,0,0,0.1,0.1,0.1s0.1,0,0.1,0l0.8-0.2c0,0,0.1,0,0.1-0.1c0,0,0-0.1,0-0.1l0-0.1
			c-0.1-0.3-0.2-0.6-0.5-0.8c-0.2-0.2-0.5-0.3-0.8-0.4c-0.3-0.1-0.7,0-1,0.1C62,18.5,61.8,18.7,61.5,18.9z M65.8,17.7
			C65.8,17.7,65.8,17.8,65.8,17.7l0.6,5.2c0,0,0,0.1,0,0.1c0,0,0.1,0,0.1,0l0.9-0.1c0,0,0.1,0,0.1,0c0,0,0-0.1,0-0.1l-0.3-2.1
			c0,0,0-0.1,0-0.1l1.7-0.2c0,0,0.1,0,0.1,0l0.3,2.1c0,0,0,0.1,0,0.1c0,0,0.1,0,0.1,0l0.9-0.1c0,0,0.1,0,0.1,0c0,0,0-0.1,0-0.1
			l-0.7-5.1c0,0,0-0.1,0-0.1c0,0-0.1,0-0.1,0l-0.9,0.1c0,0-0.1,0-0.1,0c0,0,0,0.1,0,0.1l0.3,2c0,0,0,0.1,0,0.1l-1.7,0.2
			c0,0-0.1,0-0.1,0l-0.3-2c0,0,0-0.1,0-0.1c0,0-0.1,0-0.1,0L65.8,17.7C65.9,17.7,65.9,17.7,65.8,17.7z M72.8,22.2l1.9-5
			c0-0.1,0.1-0.1,0.1-0.1l1.2,0.1c0.1,0,0.1,0,0.1,0.1l1.3,5.2c0,0,0,0,0,0.1c0,0.1,0,0.1-0.1,0.1l-1-0.1c-0.1,0-0.1,0-0.1-0.1
			l-0.2-0.8c0,0,0,0,0,0l-1.9-0.1c0,0,0,0-0.1,0l-0.3,0.7c0,0.1-0.1,0.1-0.1,0.1l-1-0.1c0,0-0.1,0-0.1,0
			C72.7,22.3,72.7,22.3,72.8,22.2z M74.5,20.7C74.5,20.7,74.5,20.8,74.5,20.7l1.4,0.1c0,0,0.1,0,0-0.1l-0.6-2.3c0,0,0,0,0,0
			c0,0,0,0,0,0L74.5,20.7z M79,22.8c0,0.1,0,0.1,0.1,0.1l0.8,0.2c0.1,0,0.1,0,0.1-0.1l1.4-3c0,0,0,0,0,0l0,0l0.1,3.4
			c0,0.1,0,0.1,0.1,0.1l0.9,0.2c0.1,0,0.1,0,0.1-0.1l2.3-4.8c0-0.1,0-0.1-0.1-0.1L84,18.5c-0.1,0-0.1,0-0.1,0.1l-1.3,2.9
			c0,0,0,0,0,0l0,0l-0.1-3.2c0-0.1,0-0.1-0.1-0.1l-0.9-0.2c-0.1,0-0.1,0-0.1,0.1L80,20.8c0,0,0,0,0,0l0,0l0-3.2c0-0.1,0-0.1-0.1-0.1
			l-0.9-0.2c-0.1,0-0.1,0-0.1,0.1v0L79,22.8z M83.4,23.8l3.4-4.2c0-0.1,0.1-0.1,0.1,0L88,20c0.1,0,0.1,0.1,0.1,0.1l-0.3,5.4
			c0,0,0,0,0,0.1c0,0.1-0.1,0.1-0.1,0l-0.9-0.4c-0.1,0-0.1-0.1-0.1-0.1l0.1-0.8c0,0,0,0,0-0.1L85,23.6c0,0,0,0-0.1,0l-0.5,0.6
			c0,0.1-0.1,0.1-0.1,0l-0.9-0.4C83.4,23.9,83.4,23.9,83.4,23.8C83.4,23.9,83.4,23.8,83.4,23.8z M85.6,22.9l1.2,0.5c0,0,0.1,0,0.1,0
			L87,21c0,0,0,0,0,0s0,0,0,0L85.6,22.9C85.5,22.9,85.5,22.9,85.6,22.9z M91,21.3l1.9,1c0.3,0.2,0.5,0.4,0.7,0.6s0.2,0.5,0.2,0.8
			s-0.1,0.6-0.2,0.8c-0.2,0.3-0.4,0.5-0.7,0.7c-0.3,0.1-0.6,0.2-0.9,0.1c0,0-0.1,0-0.1,0l-0.1,2.4c0,0,0,0.1,0,0.1
			c0,0-0.1,0.1-0.1,0l-0.8-0.5c-0.1,0-0.1-0.1-0.1-0.1l0.2-2.3c0,0,0-0.1,0-0.1l-0.6-0.3c0,0-0.1,0-0.1,0l-1,1.8c0,0,0,0-0.1,0.1
			c0,0-0.1,0-0.1,0L88.5,26c0,0,0,0-0.1-0.1c0,0,0-0.1,0-0.1l2.5-4.5C90.9,21.3,90.9,21.3,91,21.3C91,21.3,91,21.3,91,21.3z
			 M91.4,22.6l-0.6,1.1c0,0,0,0.1,0,0.1l0.9,0.5c0.2,0.1,0.4,0.1,0.6,0.1c0.2-0.1,0.3-0.2,0.4-0.3c0.1-0.2,0.1-0.4,0.1-0.5
			c-0.1-0.2-0.2-0.3-0.4-0.4L91.4,22.6C91.4,22.6,91.4,22.6,91.4,22.6z M97.8,27.5l-1.2,1.7c-0.2,0.3-0.4,0.4-0.7,0.5
			c-0.3,0.1-0.6,0.1-0.9,0.1c-0.3-0.1-0.6-0.2-0.9-0.4l-1.5-1.1c0,0,0,0,0-0.1c0,0,0-0.1,0-0.1l3.1-4.1c0,0,0,0,0.1,0s0.1,0,0.1,0
			l1.5,1.1c0.3,0.2,0.5,0.5,0.7,0.8s0.2,0.6,0.2,0.9C98,27,97.9,27.3,97.8,27.5z M97,26.4c0-0.2-0.1-0.4-0.3-0.5l-0.7-0.5
			c0,0-0.1,0-0.1,0l-2,2.7c0,0,0,0.1,0,0.1l0.7,0.6c0.2,0.1,0.4,0.2,0.6,0.2c0.2-0.1,0.4-0.2,0.6-0.4l1-1.4C97,26.8,97,26.6,97,26.4
			z M98.4,28.9c0,0.3,0,0.5,0.1,0.8c0.1,0.3,0.2,0.5,0.4,0.9c0.2,0.3,0.2,0.5,0.3,0.7c0.1,0.2,0.1,0.3,0.1,0.4
			c0,0.1-0.1,0.2-0.1,0.3c-0.1,0.1-0.3,0.2-0.4,0.2c-0.2,0-0.4-0.1-0.6-0.3c-0.2-0.2-0.4-0.5-0.4-0.7c-0.1-0.2,0-0.4,0.2-0.6
			l0.1-0.1c0,0,0-0.1,0-0.1c0,0,0-0.1,0-0.1l-0.6-0.6c0,0-0.1,0-0.1,0c0,0-0.1,0-0.1,0l-0.1,0.1c-0.2,0.2-0.4,0.5-0.4,0.8
			c-0.1,0.3,0,0.6,0.1,0.9s0.3,0.6,0.6,0.9c0.4,0.4,0.9,0.6,1.3,0.7c0.5,0.1,0.8-0.1,1.2-0.5c0.2-0.2,0.4-0.5,0.4-0.7
			c0-0.3,0-0.5-0.1-0.7c-0.1-0.2-0.2-0.5-0.4-0.8c-0.2-0.3-0.3-0.5-0.3-0.7c-0.1-0.2-0.1-0.3-0.1-0.4c0-0.1,0.1-0.2,0.1-0.3
			c0.1-0.1,0.3-0.2,0.4-0.2c0.2,0,0.3,0.1,0.5,0.3c0.2,0.2,0.3,0.4,0.4,0.7c0,0.2-0.1,0.4-0.2,0.6l-0.1,0.1c0,0,0,0.1,0,0.1
			c0,0,0,0.1,0,0.1l0.6,0.6c0,0,0.1,0,0.1,0c0,0,0.1,0,0.1,0l0.1-0.1c0.2-0.2,0.4-0.5,0.4-0.8c0.1-0.3,0-0.6-0.1-0.9
			c-0.1-0.3-0.3-0.6-0.6-0.9c-0.3-0.3-0.5-0.4-0.8-0.5c-0.3-0.1-0.6-0.1-0.8-0.1c-0.3,0.1-0.5,0.2-0.7,0.4
			C98.6,28.4,98.5,28.7,98.4,28.9z M29.2,88.6v-7.2c-4,0.5-7.9,1.1-11.7,1.7L29.2,88.6z M136.8,84.9l7-6c-3.9-2-8.1-3.8-12.6-5.3
			v9.3l0,0c0,0.3-0.1,0.5-0.4,0.6l-12.6,5.9c7.6,1.5,14.7,3.7,21.2,6.6l-2.9-10.5C136.5,85.3,136.6,85,136.8,84.9z M14.9,82.9
			C14.9,82.9,14.9,82.9,14.9,82.9v-9.3c-4.5,1.5-8.7,3.3-12.6,5.3l7,6c0.2,0.2,0.3,0.4,0.2,0.7L6.6,96c6.5-2.8,13.6-5.1,21.2-6.6
			l-12.6-5.9C15,83.4,14.8,83.2,14.9,82.9z M129.9,82.1V61.7c-16.9-3-36.5-4.5-56.9-4.5s-40,1.6-56.9,4.6v20.4
			c5.5-1,11.2-1.8,17.2-2.4c-0.3,0.3-0.4,0.7-0.2,1.1c0.2,0.4,0.7,0.6,1.2,0.4c0.3-0.2,0.5-0.5,0.5-0.8c0-0.1,0-0.3-0.1-0.4
			c0,0,0-0.1-0.1-0.1c-0.1-0.1-0.2-0.2-0.3-0.3c12.2-1.3,25.3-2,38.8-2c13.4,0,26.5,0.7,38.7,2c-0.1,0.1-0.2,0.1-0.2,0.2
			c-0.1,0.1-0.1,0.1-0.1,0.2c-0.2,0.5,0.1,1,0.6,1.1c0.4,0.2,0.9-0.1,1.1-0.4c0.1-0.1,0.1-0.3,0.1-0.4c0-0.2-0.1-0.4-0.2-0.6
			C118.8,80.4,124.5,81.2,129.9,82.1z M116.8,81.5v7.2l11.7-5.5C124.7,82.6,120.8,82,116.8,81.5z M73.3,27.9l4.7,4.7
			c2.6,2.6,2.6,6.8,0.1,9.4c-1.3,1.3-3,1.9-4.7,2c-1.7,0-3.4-0.6-4.7-1.9c-2.6-2.6-2.6-6.8-0.1-9.4L73.3,27.9z M73.3,30.6L70,33.9
			c-0.9,0.9-1.4,2.1-1.4,3.3s0.5,2.4,1.4,3.3c1.8,1.8,4.8,1.8,6.6,0c0.9-0.9,1.4-2.1,1.4-3.3s-0.5-2.4-1.4-3.3L73.3,30.6z
			 M63.8,51.1L83,51v-1.9l-19.2,0.1V51.1z M86.3,40.5c-1.4,1.4-3,2.6-4.8,3.5c1.5-1.8,2.4-4.2,2.4-6.7H82c0,4.8-3.8,8.7-8.6,8.7
			c-4.8,0-8.7-3.8-8.7-8.6h-1.9c0,2.6,0.9,4.9,2.5,6.7c-1.7-0.9-3.4-2-4.8-3.4L59.1,42c3.8,3.8,8.9,5.9,14.3,5.8
			c5.4,0,10.5-2.1,14.3-6L86.3,40.5z M73.9,85.7L73,82.9l-0.9,2.8h-2.9l2.3,1.7l-0.9,2.8l2.3-1.7l2.3,1.7l-0.9-2.8l2.3-1.7H73.9z
			 M62.2,84.5l-0.6-1.8L61,84.5h-1.9l1.6,1.1l-0.6,1.8l1.6-1.1l1.6,1.1l-0.6-1.8l1.6-1.1H62.2z M39.3,38.7l1.6-1.1l1.6,1.1l-0.6-1.8
			l1.6-1.1h-1.9l-0.6-1.8l-0.6,1.8h-1.9l1.6,1.1L39.3,38.7z M85,84.5l-0.6-1.8l-0.6,1.8h-1.9l1.6,1.1l-0.6,1.8l1.6-1.1l1.6,1.1
			l-0.6-1.8l1.6-1.1H85z M103.5,38.7l1.6-1.1l1.6,1.1l-0.6-1.8l1.6-1.1h-1.9l-0.6-1.8l-0.6,1.8h-1.9l1.6,1.1L103.5,38.7z M76.7,13.5
			c0.4,0.1,0.8-0.2,1-0.7c0-0.1,0-0.2,0-0.2c0-0.4-0.3-0.8-0.7-0.9c-0.1,0-0.2,0-0.2,0c-0.5,0-0.9,0.4-0.9,0.9
			C75.9,13,76.2,13.4,76.7,13.5z M116.9,51c0,0.1,0,0.2,0.1,0.3c0.2,0.5,0.7,0.7,1.1,0.6c0.4-0.1,0.6-0.5,0.6-0.8c0-0.1,0-0.1,0-0.1
			c-0.1-0.4-0.4-0.8-0.9-0.8C117.3,50.2,116.9,50.6,116.9,51z M110.7,82.8c-0.4-0.3-0.9-0.2-1.2,0.2c-0.3,0.4-0.2,0.9,0.2,1.2
			c0.4,0.3,0.9,0.3,1.2-0.1c0,0,0-0.1,0.1-0.1c0.1-0.2,0.2-0.3,0.2-0.5C111.1,83.2,110.9,82.9,110.7,82.8z M116.2,47.5
			c0.1,0.4,0.4,0.7,0.9,0.7c0.5,0,0.9-0.4,0.9-0.9c0-0.1,0-0.2-0.1-0.3c-0.2-0.5-0.7-0.7-1.1-0.6C116.4,46.6,116.1,47,116.2,47.5z
			 M107.2,85.9c-0.3,0.4-0.3,0.9,0,1.2c0.4,0.4,0.9,0.4,1.2,0c0,0,0.1-0.1,0.1-0.1c0.1-0.2,0.2-0.4,0.2-0.6c0-0.3-0.1-0.5-0.3-0.7
			C108.1,85.5,107.5,85.6,107.2,85.9z M69.1,13.5c0.1,0,0.2,0,0.3,0c0.4-0.1,0.6-0.5,0.6-0.8c0-0.1,0-0.2,0-0.3
			c-0.1-0.4-0.5-0.7-1-0.6c-0.4,0.1-0.8,0.4-0.8,0.9C68.2,13.1,68.6,13.5,69.1,13.5z M117.3,54.8c0,0.1,0,0.2,0,0.3
			c0.1,0.5,0.6,0.7,1.1,0.6c0.4-0.1,0.6-0.5,0.6-0.8c0,0,0-0.1,0-0.1c-0.1-0.4-0.4-0.8-0.9-0.8C117.7,53.9,117.3,54.3,117.3,54.8z
			 M65.5,13.9c0.4-0.1,0.7-0.4,0.7-0.9c0-0.5-0.4-0.9-0.9-0.9c-0.1,0-0.2,0-0.3,0c-0.5,0.1-0.7,0.6-0.6,1.1
			C64.6,13.7,65.1,14,65.5,13.9z M118.2,57.7c-0.5,0-0.9,0.4-0.9,0.9s0.4,0.9,0.9,0.9s0.9-0.4,0.9-0.9l0,0
			C119.1,58.1,118.7,57.7,118.2,57.7z M72.9,13.3C72.9,13.3,72.9,13.3,72.9,13.3c0.1,0,0.1,0,0.1,0c0.5,0,0.9-0.4,0.9-0.9
			c0-0.5-0.4-0.9-0.9-0.9l0,0c0,0,0,0-0.1,0s0,0-0.1,0l0,0c-0.5,0-0.9,0.4-0.9,0.9C72,12.9,72.4,13.3,72.9,13.3z M113.9,40.4
			c0,0.1,0.1,0.2,0.1,0.2c0.3,0.4,0.8,0.5,1.2,0.3c0.3-0.2,0.4-0.5,0.4-0.7c0-0.1,0-0.3-0.1-0.4c-0.2-0.4-0.7-0.6-1.1-0.5
			C114,39.4,113.7,39.9,113.9,40.4z M108.4,30.9c0.4,0.4,0.9,0.4,1.2,0c0.2-0.2,0.3-0.4,0.3-0.6c0-0.2-0.1-0.4-0.2-0.6
			c-0.3-0.4-0.8-0.4-1.2-0.2c-0.4,0.3-0.5,0.8-0.3,1.2C108.3,30.9,108.4,30.9,108.4,30.9z M111.7,34.2c0.3-0.2,0.4-0.5,0.4-0.7
			c0-0.2-0.1-0.3-0.2-0.5l0,0c-0.3-0.4-0.8-0.5-1.2-0.3c-0.4,0.3-0.5,0.8-0.3,1.2C110.7,34.3,111.3,34.4,111.7,34.2z M106.1,28.1
			c0.4,0.3,1,0.2,1.2-0.3c0.1-0.2,0.2-0.3,0.2-0.5c0-0.2-0.1-0.4-0.3-0.6c-0.3-0.3-0.8-0.4-1.1-0.1c-0.4,0.3-0.5,0.8-0.3,1.2
			C105.9,28,106,28.1,106.1,28.1z M97.5,20.7c0.4,0.3,1,0.2,1.2-0.3c0.1-0.2,0.2-0.3,0.2-0.5c0-0.3-0.1-0.6-0.4-0.7l0,0
			c-0.4-0.3-1-0.2-1.2,0.3C97,19.9,97.1,20.4,97.5,20.7z M91,17.1c0.4,0.2,0.9,0.1,1.1-0.3c0.1-0.2,0.2-0.3,0.2-0.5
			c0-0.3-0.1-0.6-0.4-0.7c-0.1-0.1-0.1-0.1-0.2-0.1c-0.5-0.2-1,0.1-1.1,0.6C90.4,16.5,90.6,17,91,17.1z M104.5,25.4
			c0.3-0.2,0.4-0.5,0.4-0.7c0-0.2-0.1-0.3-0.2-0.5c-0.1-0.1-0.2-0.2-0.3-0.3c-0.4-0.3-1-0.2-1.2,0.3c-0.3,0.4-0.2,0.8,0.1,1.1
			C103.7,25.6,104.1,25.6,104.5,25.4z M94.3,18.7c0.1,0.1,0.1,0.1,0.2,0.1c0.5,0.2,1-0.1,1.1-0.6c0-0.1,0.1-0.2,0.1-0.3
			c0-0.3-0.2-0.6-0.5-0.8c-0.4-0.2-0.9-0.1-1.1,0.3C93.8,17.9,93.9,18.5,94.3,18.7z M113.4,37.5c0.4-0.1,0.6-0.5,0.6-0.8
			c0-0.1,0-0.2-0.1-0.3c0-0.1-0.1-0.2-0.1-0.2c-0.3-0.4-0.8-0.5-1.2-0.3c-0.4,0.3-0.5,0.7-0.3,1.1C112.5,37.5,112.9,37.7,113.4,37.5
			z M115.2,43.9c0.1,0.5,0.6,0.7,1.1,0.6c0.4-0.1,0.7-0.5,0.7-0.9c0-0.1,0-0.2,0-0.2c0,0,0-0.1,0-0.1c-0.2-0.5-0.7-0.7-1.1-0.6
			C115.3,43,115,43.5,115.2,43.9z M87.6,15.8C87.6,15.8,87.7,15.8,87.6,15.8c0.6,0.2,1-0.2,1.1-0.6c0-0.1,0-0.2,0-0.2
			c0-0.4-0.3-0.7-0.6-0.8c-0.5-0.1-0.9,0.1-1.1,0.6C86.9,15.1,87.1,15.6,87.6,15.8z M84,14.7c0.1,0,0.2,0.1,0.3,0.1
			c0.5,0,0.9-0.4,0.9-0.9c0-0.4-0.3-0.8-0.7-0.9c-0.4-0.1-0.9,0.2-1,0.6C83.3,14,83.5,14.5,84,14.7z M104.7,88.7
			c-0.3,0.3-0.3,0.8-0.1,1.2c0.3,0.4,0.9,0.4,1.2,0.1c0.1,0,0.1-0.1,0.1-0.1c0.1-0.2,0.2-0.4,0.2-0.6c0-0.3-0.1-0.5-0.3-0.7
			C105.5,88.3,105,88.4,104.7,88.7z M100.5,22.9c0.4,0.3,0.9,0.3,1.2-0.1c0.2-0.2,0.3-0.4,0.3-0.6c0-0.2-0.1-0.5-0.3-0.6
			c-0.1-0.1-0.1-0.1-0.1-0.1c-0.4-0.3-1-0.2-1.2,0.3C100.1,22.1,100.2,22.6,100.5,22.9z M80.3,13.9c0.1,0,0.2,0.1,0.3,0.1
			c0.5,0,0.9-0.4,0.9-0.9c0-0.4-0.3-0.8-0.7-0.9c-0.4-0.1-0.9,0.2-1,0.6C79.5,13.2,79.8,13.7,80.3,13.9z M28.1,52
			c0.5,0.1,0.9-0.3,1-0.7c0-0.1,0-0.1,0-0.1c0-0.4-0.3-0.8-0.7-0.9c-0.5-0.1-0.9,0.3-1,0.7v0C27.3,51.5,27.6,52,28.1,52z M47,93.6
			c-0.4-0.3-0.9-0.2-1.2,0.2c-0.3,0.4-0.3,0.9,0.1,1.2c0,0,0.1,0,0.1,0.1c0.4,0.3,1,0.2,1.2-0.3c0.1-0.2,0.2-0.3,0.2-0.5
			C47.3,94,47.2,93.8,47,93.6z M50.1,95.7c0,0-0.1-0.1-0.1-0.1c-0.4-0.2-1-0.1-1.2,0.4c-0.2,0.4-0.1,0.9,0.3,1.2
			c0.4,0.2,0.9,0.1,1.2-0.3c0.1-0.2,0.2-0.3,0.2-0.5C50.5,96.1,50.4,95.9,50.1,95.7z M53.3,97.5c-0.4-0.2-1-0.1-1.2,0.4
			c-0.2,0.4-0.1,1,0.4,1.2l0,0c0.4,0.2,1,0.1,1.2-0.4c0.1-0.1,0.1-0.3,0.1-0.4C53.8,97.9,53.6,97.6,53.3,97.5z M61.9,14.7L61.9,14.7
			c0.4-0.1,0.6-0.5,0.6-0.8c0-0.1,0-0.2-0.1-0.3c-0.2-0.5-0.6-0.7-1.1-0.6c-0.5,0.1-0.7,0.6-0.6,1.1C60.9,14.6,61.4,14.9,61.9,14.7z
			 M60.2,100.2c-0.5-0.2-0.9,0.1-1.1,0.6c-0.2,0.5,0.1,1,0.6,1.1h0c0.5,0.1,1-0.1,1.1-0.6c0-0.1,0-0.2,0-0.3
			C60.8,100.6,60.6,100.3,60.2,100.2z M38.8,86c-0.3-0.4-0.9-0.4-1.2-0.1c-0.4,0.3-0.4,0.9-0.1,1.2c0.3,0.4,0.9,0.4,1.2,0.1
			c0.2-0.2,0.3-0.4,0.3-0.7C39.1,86.4,39,86.2,38.8,86C38.9,86,38.9,86,38.8,86z M36.6,83c-0.3-0.4-0.9-0.4-1.2-0.1
			c-0.4,0.3-0.4,0.8-0.2,1.2c0.3,0.4,0.8,0.5,1.2,0.2c0.3-0.2,0.4-0.5,0.4-0.7C36.8,83.4,36.7,83.2,36.6,83
			C36.6,83.1,36.6,83,36.6,83z M42.8,91.4c-0.3,0.4-0.3,0.9,0.1,1.2c0,0,0,0,0,0c0.4,0.3,0.9,0.3,1.2-0.1c0.1-0.2,0.2-0.4,0.2-0.6
			c0-0.3-0.1-0.5-0.3-0.7C43.7,91,43.1,91,42.8,91.4z M40.2,88.7c-0.4,0.3-0.4,0.9-0.1,1.2c0,0,0.1,0.1,0.1,0.1
			c0.4,0.4,0.9,0.4,1.2,0c0.2-0.2,0.3-0.4,0.3-0.6c0-0.2-0.1-0.4-0.2-0.6C41.1,88.4,40.5,88.4,40.2,88.7z M56.8,99
			c-0.1,0-0.1-0.1-0.2-0.1c-0.5-0.1-1,0.1-1.1,0.6c-0.1,0.4,0.1,0.9,0.5,1.1s0.9,0,1.1-0.4c0.1-0.1,0.1-0.3,0.1-0.4
			C57.3,99.5,57.1,99.2,56.8,99z M85.9,100.1c-0.5,0.1-0.7,0.6-0.6,1.1c0.1,0.5,0.6,0.8,1.1,0.6c0,0,0.1,0,0.1,0
			c0.4-0.1,0.6-0.5,0.6-0.8c0-0.1,0-0.2-0.1-0.3C86.8,100.3,86.3,100,85.9,100.1z M82.3,101.1C82.3,101.1,82.3,101.1,82.3,101.1
			c-0.6,0.2-0.8,0.6-0.7,1.1c0.1,0.5,0.6,0.7,1,0.7c0.4-0.1,0.7-0.5,0.7-0.9c0-0.1,0-0.1,0-0.2C83.2,101.3,82.8,101,82.3,101.1z
			 M89.4,98.9c-0.4,0.2-0.7,0.6-0.5,1c0.1,0.5,0.6,0.8,1.1,0.6c0.1,0,0.1-0.1,0.2-0.1c0.3-0.2,0.5-0.5,0.5-0.8c0-0.1,0-0.3-0.1-0.4
			C90.3,99,89.8,98.8,89.4,98.9z M92.8,97.4c-0.4,0.2-0.6,0.8-0.4,1.2c0.2,0.4,0.8,0.6,1.2,0.4l0,0c0.3-0.2,0.5-0.5,0.5-0.8
			c0-0.1,0-0.3-0.1-0.4C93.7,97.4,93.2,97.2,92.8,97.4z M78.6,101.7c-0.5,0.1-0.8,0.5-0.7,1c0.1,0.5,0.5,0.8,1,0.8h0
			c0.4-0.1,0.7-0.5,0.7-0.9c0-0.1,0-0.1,0-0.2C79.5,102,79.1,101.6,78.6,101.7z M71.2,102c-0.5,0-0.9,0.3-0.9,0.8
			c-0.1,0.5,0.3,0.9,0.8,1c0,0,0.1,0,0.1,0c0.5,0,0.9-0.4,0.9-0.9C72,102.4,71.7,102,71.2,102z M67.5,101.7c-0.5-0.1-0.9,0.3-1,0.7
			c-0.1,0.5,0.3,0.9,0.7,1h0c0.5,0.1,0.9-0.3,1-0.8c0-0.1,0-0.1,0-0.1C68.3,102.2,67.9,101.8,67.5,101.7z M63.8,101.1
			c-0.4-0.1-0.9,0.2-1,0.6c-0.2,0.5,0.1,1,0.6,1.1c0.1,0,0.1,0,0.2,0c0.5,0.1,0.9-0.3,1-0.8c0-0.1,0-0.1,0-0.1
			C64.5,101.6,64.2,101.2,63.8,101.1z M74.9,102c0,0-0.1,0-0.1,0c-0.5,0.1-0.8,0.5-0.8,1c0.1,0.5,0.5,0.8,0.9,0.8
			c0.5,0,0.8-0.4,0.8-0.9S75.4,102,74.9,102z M27.8,59.6c0.5,0,0.9-0.4,0.9-0.9s-0.4-0.9-0.9-0.9c-0.5,0-0.9,0.4-0.9,0.9l0,0
			C26.9,59.2,27.3,59.6,27.8,59.6z M102.1,91.2c-0.1,0.1-0.2,0.1-0.2,0.2c-0.3,0.4-0.3,0.9,0.1,1.2c0.3,0.3,0.8,0.3,1.1,0
			c0.2-0.2,0.3-0.4,0.3-0.7c0-0.2-0.1-0.3-0.2-0.5C103,91,102.5,90.9,102.1,91.2z M99.1,93.5c-0.1,0-0.1,0.1-0.1,0.1
			c-0.4,0.4-0.4,0.9,0,1.2c0.3,0.3,0.8,0.4,1.2,0.1c0.2-0.2,0.3-0.4,0.3-0.7c0-0.2-0.1-0.3-0.2-0.5C100.1,93.4,99.5,93.3,99.1,93.5z
			 M40,28c0.2-0.2,0.2-0.4,0.2-0.6c0-0.2-0.1-0.5-0.3-0.6c-0.4-0.4-0.9-0.4-1.2,0c0,0,0,0.1-0.1,0.1c-0.3,0.4-0.3,0.9,0.1,1.2
			C39.1,28.5,39.7,28.4,40,28z M42.5,25.4c0.1,0,0.1-0.1,0.1-0.1c0.1-0.2,0.2-0.4,0.2-0.6c0-0.3-0.1-0.5-0.3-0.7
			c-0.4-0.3-0.9-0.3-1.2,0.1C41,24.4,41,25,41.3,25.3C41.6,25.7,42.1,25.7,42.5,25.4z M45.4,23c0.2-0.2,0.4-0.4,0.4-0.7
			c0-0.2-0.1-0.3-0.2-0.5c-0.3-0.4-0.8-0.5-1.2-0.3c0,0-0.1,0-0.1,0.1c-0.4,0.3-0.4,0.9-0.1,1.2C44.4,23.2,45,23.3,45.4,23z
			 M58.3,15.8c0.4-0.1,0.6-0.5,0.6-0.8c0-0.1,0-0.2,0-0.3c-0.1-0.5-0.6-0.7-1.1-0.6h0c-0.5,0.2-0.7,0.7-0.6,1.1
			C57.3,15.7,57.8,15.9,58.3,15.8z M54.8,17.2c0.1,0,0.1-0.1,0.2-0.1c0.3-0.2,0.5-0.5,0.5-0.8c0-0.2,0-0.3-0.1-0.4
			c-0.2-0.4-0.7-0.6-1.1-0.4c-0.4,0.2-0.6,0.7-0.5,1.1C53.8,17.1,54.3,17.4,54.8,17.2z M27.8,55.8c0.5,0,0.9-0.4,0.9-0.8
			c0,0,0,0,0-0.1c0-0.4-0.3-0.8-0.8-0.9c-0.5-0.1-0.9,0.3-1,0.8c0,0.1,0,0.1,0,0.1C27,55.4,27.3,55.8,27.8,55.8z M51.5,18.9
			c0.3-0.2,0.5-0.5,0.5-0.8c0-0.1,0-0.2-0.1-0.3c-0.2-0.5-0.7-0.7-1.1-0.6c-0.1,0-0.2,0.1-0.2,0.1c-0.4,0.3-0.5,0.8-0.3,1.2
			C50.6,18.9,51.1,19.1,51.5,18.9z M48.4,20.8C48.4,20.7,48.4,20.7,48.4,20.8c0.3-0.2,0.4-0.5,0.4-0.7c0-0.2-0.1-0.4-0.2-0.6
			c-0.3-0.4-0.8-0.4-1.2-0.2c-0.4,0.3-0.5,0.8-0.2,1.2C47.4,20.9,48,21,48.4,20.8z M28.7,48.3c0.5,0.2,1-0.1,1.1-0.6
			c0-0.1,0-0.1,0.1-0.2c0,0,0-0.1,0-0.1c0-0.4-0.3-0.8-0.8-0.9c-0.5-0.1-0.9,0.2-1,0.7C28,47.7,28.2,48.1,28.7,48.3z M29.6,44.6
			c0.5,0.2,1-0.1,1.1-0.6c0,0,0-0.1,0-0.1c0-0.1,0-0.2,0-0.2c0-0.4-0.3-0.8-0.7-0.9c-0.5-0.1-0.9,0.2-1.1,0.6
			C29,44,29.2,44.5,29.6,44.6z M32.5,37.6c0.4,0.2,0.9,0.1,1.2-0.4c0.1-0.1,0.1-0.3,0.1-0.4c0-0.3-0.1-0.6-0.4-0.7
			c-0.4-0.3-1-0.2-1.2,0.3c0,0-0.1,0.1-0.1,0.1C31.8,36.8,32,37.4,32.5,37.6z M96,95.6c-0.4,0.2-0.5,0.7-0.3,1.1
			c0.2,0.4,0.8,0.6,1.2,0.4c0,0,0.1,0,0.1-0.1c0.3-0.2,0.4-0.5,0.4-0.7c0-0.2-0.1-0.3-0.2-0.5C97,95.5,96.4,95.4,96,95.6z M30.9,41
			c0.4,0.2,1,0.1,1.2-0.4c0-0.1,0.1-0.1,0.1-0.2c0-0.1,0-0.2,0-0.2c0-0.4-0.3-0.8-0.7-0.9c-0.4-0.1-0.9,0.1-1,0.5
			C30.3,40.3,30.4,40.8,30.9,41z M34.3,34.2c0.4,0.3,1,0.2,1.2-0.3c0,0,0.1-0.1,0.1-0.1c0.1-0.1,0.1-0.3,0.1-0.4
			c0-0.3-0.2-0.6-0.5-0.8c-0.4-0.2-0.9-0.1-1.2,0.3C33.8,33.5,33.9,34,34.3,34.2z M36.4,31.1c0.4,0.3,0.9,0.2,1.2-0.2
			c0.1-0.2,0.2-0.4,0.2-0.6c0-0.2-0.1-0.5-0.3-0.6c-0.4-0.4-0.9-0.4-1.2,0c-0.1,0.1-0.1,0.1-0.1,0.1C35.9,30.3,36,30.9,36.4,31.1z
			 M107.3,43.2c1,2.2,1.7,4.6,2.2,7c0.5,2.4,0.7,4.9,0.8,7.3c0.4,0.1,0.8,0.1,1.3,0.1c0-2.6-0.3-5.2-0.8-7.7
			c-0.5-2.5-1.3-4.9-2.2-7.2c-0.1-0.3-0.5-0.5-0.8-0.3C107.4,42.5,107.2,42.8,107.3,43.2z M99.4,84c-1.7,1.7-3.5,3.2-5.5,4.5
			c-2,1.3-4.1,2.5-6.3,3.4c-2.2,1-4.6,1.7-7,2.2c-4.9,1-10.1,1-15,0c-2.4-0.5-4.8-1.2-7-2.2c-2.2-0.9-4.3-2.1-6.3-3.4
			c-2-1.3-3.8-2.9-5.5-4.5c-1.2-1.2-2.3-2.4-3.3-3.8c-0.5,0.1-1,0.1-1.5,0.1c1.2,1.6,2.5,3.1,3.9,4.5c1.7,1.7,3.7,3.3,5.7,4.7
			c2.1,1.4,4.3,2.6,6.5,3.6c2.3,1,4.8,1.7,7.2,2.2c2.5,0.5,5.2,0.8,7.8,0.8c2.6,0,5.2-0.3,7.8-0.8c2.5-0.5,4.9-1.3,7.2-2.2
			c2.3-1,4.5-2.2,6.5-3.6s4-3,5.7-4.7c1.4-1.4,2.7-2.9,3.9-4.5c-0.5-0.1-1-0.1-1.5-0.1C101.6,81.6,100.5,82.8,99.4,84z M37.5,42.7
			c-1,2.3-1.7,4.8-2.2,7.2c-0.5,2.5-0.8,5.1-0.8,7.7c0.4-0.1,0.8-0.1,1.3-0.1c0-2.5,0.3-4.9,0.8-7.3c0.5-2.4,1.2-4.8,2.2-7
			c0.1-0.3,0-0.7-0.3-0.8C38,42.2,37.6,42.3,37.5,42.7z"/>
	</g>
	<path class="st0" d="M33.1,70.4c0-0.1,0-0.1,0.1-0.1c0.6-0.3,1.1-0.7,1.4-1.3c0.3-0.6,0.5-1.2,0.4-1.9c-0.1-0.7-0.3-1.3-0.6-1.8
		c-0.4-0.5-0.8-0.9-1.4-1.2c-0.6-0.3-1.3-0.4-2-0.3c-1.7,0.2-3.3,0.3-5,0.5c-0.1,0-0.1,0-0.2,0.1c-0.1,0.1-0.1,0.1-0.1,0.2
		c0.3,3.6,0.7,7.2,1,10.8c0,0.1,0,0.1,0.1,0.2c0.1,0.1,0.1,0.1,0.2,0.1c0.9-0.1,1.7-0.2,2.6-0.2c0.1,0,0.1,0,0.2-0.1
		c0.1-0.1,0.1-0.1,0.1-0.2c-0.1-1.3-0.2-2.7-0.4-4c0-0.1,0-0.1,0.1-0.1c0.2,0,0.5-0.1,0.7-0.1c0.1,0,0.1,0,0.1,0.1
		c0.7,1.3,1.4,2.6,2.1,3.9c0.1,0.1,0.2,0.2,0.3,0.2c0.9-0.1,1.8-0.2,2.7-0.2c0.1,0,0.1,0,0.2-0.1c0.1,0,0.1-0.1,0.1-0.1
		c0,0,0-0.1-0.1-0.1C34.6,73.2,33.9,71.8,33.1,70.4z M31.5,68.1c-0.2,0.2-0.5,0.3-0.8,0.4c-0.5,0.1-1,0.1-1.5,0.1
		c-0.1,0-0.1,0-0.1-0.1c-0.1-0.6-0.1-1.3-0.2-1.9c0-0.1,0-0.1,0.1-0.1c0.5-0.1,1-0.1,1.5-0.1c0.4,0,0.6,0.1,0.9,0.2
		c0.2,0.2,0.4,0.4,0.4,0.7C31.8,67.7,31.7,67.9,31.5,68.1z M45.9,70.2c0.1,0.8-0.1,1.5-0.4,2.2c-0.3,0.6-0.8,1.1-1.5,1.5
		c-0.7,0.4-1.4,0.6-2.3,0.6c-0.9,0.1-1.7-0.1-2.3-0.4c-0.7-0.3-1.3-0.7-1.7-1.3c-0.4-0.6-0.7-1.3-0.7-2.1c-0.2-2.4-0.4-4.8-0.5-7.1
		c0-0.1,0-0.1,0.1-0.2c0.1-0.1,0.1-0.1,0.2-0.1c0.9-0.1,1.7-0.1,2.6-0.2c0.1,0,0.2,0,0.2,0.1c0.1,0.1,0.1,0.1,0.1,0.2
		c0.2,2.4,0.3,4.8,0.5,7.1c0,0.4,0.2,0.8,0.5,1c0.3,0.3,0.6,0.4,1,0.3c0.4,0,0.7-0.2,1-0.5c0.2-0.3,0.4-0.6,0.3-1.1
		c-0.2-2.4-0.3-4.8-0.4-7.1c0-0.1,0-0.1,0.1-0.2c0.1-0.1,0.1-0.1,0.2-0.1c0.9-0.1,1.7-0.1,2.6-0.2c0.1,0,0.1,0,0.2,0.1
		c0.1,0.1,0.1,0.1,0.1,0.2C45.7,65.4,45.8,67.8,45.9,70.2z M57.2,62.6c0.1,3.6,0.2,7.2,0.3,10.8c0,0.1,0,0.1-0.1,0.2
		c-0.1,0.1-0.1,0.1-0.2,0.1c-0.8,0-1.6,0.1-2.5,0.1c-0.1,0-0.2-0.1-0.3-0.2c-1.2-1.8-2.3-3.6-3.5-5.4c0,0-0.1-0.1-0.1,0
		c0,0,0,0,0,0.1c0.1,1.8,0.2,3.6,0.3,5.4c0,0.1,0,0.1-0.1,0.2c-0.1,0.1-0.1,0.1-0.2,0.1C50.1,74,49.2,74,48.4,74
		c-0.1,0-0.1,0-0.2-0.1c-0.1-0.1-0.1-0.1-0.1-0.2c-0.2-3.6-0.4-7.2-0.6-10.8c0-0.1,0-0.1,0.1-0.2c0.1-0.1,0.1-0.1,0.2-0.1
		c0.8-0.1,1.7-0.1,2.5-0.1c0.1,0,0.2,0.1,0.3,0.2c1.2,1.8,2.4,3.6,3.6,5.4c0,0,0.1,0.1,0.1,0.1s0,0,0-0.1c-0.1-1.8-0.2-3.6-0.2-5.4
		c0-0.1,0-0.1,0.1-0.2c0.1-0.1,0.1-0.1,0.2-0.1c0.9,0,1.7-0.1,2.6-0.1c0.1,0,0.1,0,0.2,0.1C57.2,62.4,57.2,62.5,57.2,62.6z
		 M68.9,62.3c0,3.6,0.1,7.2,0.1,10.8c0,0.1,0,0.1-0.1,0.2c-0.1,0.1-0.1,0.1-0.2,0.1c-0.8,0-1.6,0-2.5,0c-0.1,0-0.2-0.1-0.3-0.2
		c-1.1-1.8-2.3-3.6-3.4-5.4c0,0-0.1-0.1-0.1-0.1c0,0,0,0,0,0.1c0.1,1.8,0.1,3.6,0.2,5.4c0,0.1,0,0.1-0.1,0.2
		c-0.1,0.1-0.1,0.1-0.2,0.1c-0.9,0-1.7,0.1-2.6,0.1c-0.1,0-0.1,0-0.2-0.1c-0.1-0.1-0.1-0.1-0.1-0.2c-0.1-3.6-0.2-7.2-0.3-10.8
		c0-0.1,0-0.1,0.1-0.2c0.1-0.1,0.1-0.1,0.2-0.1c0.8,0,1.7-0.1,2.5-0.1c0.1,0,0.2,0.1,0.3,0.2c1.2,1.8,2.3,3.6,3.4,5.4
		c0,0,0.1,0.1,0.1,0.1c0,0,0,0,0-0.1c0-1.8-0.1-3.6-0.1-5.4c0-0.1,0-0.1,0.1-0.2c0.1-0.1,0.1-0.1,0.2-0.1c0.9,0,1.7,0,2.6,0
		c0.1,0,0.1,0,0.2,0.1C68.9,62.2,68.9,62.3,68.9,62.3z M79.3,62.2c0.1,0.1,0.1,0.1,0.1,0.2c0,0.7,0,1.4,0,2.1c0,0.1,0,0.1-0.1,0.2
		c-0.1,0.1-0.1,0.1-0.2,0.1c-1.6,0-3.3,0-4.9-0.1c-0.1,0-0.1,0-0.1,0.1c0,0.5,0,1,0,1.5c0,0.1,0,0.1,0.1,0.1c1,0,2,0,3,0
		c0.1,0,0.1,0,0.2,0.1c0.1,0.1,0.1,0.1,0.1,0.2c0,0.7,0,1.4,0,2.1c0,0.1,0,0.1-0.1,0.2c-0.1,0.1-0.1,0.1-0.2,0.1c-1,0-2,0-3,0
		c-0.1,0-0.1,0-0.1,0.1c0,0.6,0,1.1,0,1.7c0,0.1,0,0.1,0.1,0.1c1.6,0,3.2,0,4.9,0.1c0.1,0,0.1,0,0.2,0.1c0.1,0.1,0.1,0.1,0.1,0.2
		c0,0.7,0,1.4,0,2.1c0,0.1,0,0.1-0.1,0.2c-0.1,0.1-0.1,0.1-0.2,0.1c-2.6,0-5.2-0.1-7.7-0.1c-0.1,0-0.1,0-0.2-0.1
		c-0.1-0.1-0.1-0.1-0.1-0.2c0-3.6,0-7.2,0-10.8c0-0.1,0-0.1,0.1-0.2c0.1-0.1,0.1-0.1,0.2-0.1c2.6,0,5.3,0,7.9,0.1
		C79.2,62.1,79.3,62.1,79.3,62.2z M88.5,62.8c-0.6-0.3-1.2-0.5-2-0.5c-1.7-0.1-3.3-0.1-5-0.1c-0.1,0-0.1,0-0.2,0.1
		c-0.1,0.1-0.1,0.1-0.1,0.2c-0.1,3.6-0.1,7.2-0.2,10.8c0,0.1,0,0.1,0.1,0.2c0.1,0.1,0.1,0.1,0.2,0.1c0.9,0,1.7,0,2.6,0.1
		c0.1,0,0.1,0,0.2-0.1c0.1-0.1,0.1-0.1,0.1-0.2c0-1.3,0.1-2.7,0.1-4c0-0.1,0-0.1,0.1-0.1c0.2,0,0.5,0,0.7,0c0.1,0,0.1,0,0.1,0.1
		c0.6,1.4,1.1,2.8,1.7,4.1c0.1,0.1,0.1,0.2,0.3,0.2c0.9,0,1.8,0.1,2.7,0.1c0.1,0,0.1,0,0.2-0.1c0.1,0,0.1-0.1,0.1-0.1
		c0,0,0-0.1,0-0.1c-0.6-1.4-1.3-2.9-1.9-4.3c0-0.1,0-0.1,0.1-0.1c0.6-0.2,1.1-0.6,1.5-1.1c0.4-0.5,0.6-1.1,0.6-1.8
		c0-0.7-0.1-1.3-0.4-1.9C89.5,63.5,89.1,63.1,88.5,62.8z M86.8,66.6c-0.2,0.2-0.5,0.3-0.9,0.3c-0.5,0-1,0-1.5-0.1
		c-0.1,0-0.1,0-0.1-0.1c0-0.6,0-1.3,0.1-1.9c0-0.1,0-0.1,0.1-0.1c0.5,0,1,0,1.5,0.1c0.4,0,0.6,0.1,0.9,0.3c0.2,0.2,0.3,0.5,0.3,0.8
		C87.1,66.2,87,66.5,86.8,66.6z M97.7,68.2c0.1,0.1,0.1,0.1,0.1,0.2c0,0.7-0.1,1.4-0.1,2.1c0,0.1,0,0.1-0.1,0.2s-0.1,0.1-0.2,0.1
		c-1.9-0.1-3.7-0.2-5.6-0.3c-0.1,0-0.1,0-0.2-0.1c-0.1-0.1-0.1-0.1-0.1-0.2c0-0.7,0.1-1.4,0.1-2.1c0-0.1,0-0.1,0.1-0.2
		c0.1-0.1,0.1-0.1,0.2-0.1c1.9,0.1,3.8,0.2,5.7,0.3C97.6,68.1,97.7,68.1,97.7,68.2z M108.8,63.4c0.1,0.1,0.1,0.1,0.1,0.2
		c-0.2,2.4-0.4,4.8-0.5,7.1c-0.1,0.8-0.3,1.5-0.7,2.1c-0.4,0.6-1,1-1.6,1.3c-0.7,0.3-1.5,0.4-2.3,0.4s-1.6-0.3-2.3-0.6
		c-0.7-0.4-1.1-0.9-1.5-1.5c-0.3-0.6-0.5-1.4-0.4-2.2c0.1-2.4,0.3-4.8,0.4-7.1c0-0.1,0-0.1,0.1-0.2c0.1-0.1,0.1-0.1,0.2-0.1
		c0.9,0.1,1.7,0.1,2.6,0.2c0.1,0,0.1,0,0.2,0.1c0.1,0.1,0.1,0.1,0.1,0.2c-0.2,2.4-0.3,4.8-0.4,7.1c0,0.4,0.1,0.8,0.3,1.1
		c0.2,0.3,0.6,0.4,1,0.5c0.4,0,0.8-0.1,1-0.3c0.3-0.3,0.4-0.6,0.5-1c0.2-2.4,0.3-4.8,0.5-7.1c0-0.1,0-0.1,0.1-0.2s0.1-0.1,0.2-0.1
		c0.9,0.1,1.7,0.1,2.6,0.2C108.7,63.4,108.8,63.4,108.8,63.4z M119.3,66c-0.3-0.6-0.7-1.1-1.3-1.4c-0.6-0.4-1.2-0.6-2-0.6
		c-1.6-0.2-3.2-0.3-4.9-0.4c-0.1,0-0.2,0-0.2,0.1c-0.1,0.1-0.1,0.1-0.1,0.2c-0.3,3.6-0.6,7.2-0.8,10.8c0,0.1,0,0.1,0.1,0.2
		c0.1,0.1,0.1,0.1,0.2,0.1c0.9,0.1,1.7,0.1,2.6,0.2c0.1,0,0.1,0,0.2-0.1c0.1-0.1,0.1-0.1,0.1-0.2c0.1-1.2,0.2-2.4,0.3-3.6
		c0-0.1,0-0.1,0.1-0.1c0.6,0.1,1.2,0.1,1.7,0.2c0.8,0.1,1.5,0,2.1-0.3c0.6-0.3,1.1-0.6,1.5-1.1c0.4-0.5,0.6-1.1,0.7-1.8
		C119.6,67.3,119.5,66.6,119.3,66z M116.1,68.6c-0.3,0.2-0.6,0.3-1,0.2c-0.5-0.1-0.9-0.1-1.4-0.1c-0.1,0-0.1,0-0.1-0.1
		c0.1-0.7,0.1-1.4,0.2-2.1c0-0.1,0-0.1,0.1-0.1c0.5,0.1,0.9,0.1,1.4,0.1c0.4,0,0.7,0.2,1,0.4c0.2,0.2,0.3,0.5,0.3,0.9
		C116.5,68.1,116.3,68.4,116.1,68.6z"/>
</g>
</svg>
