<svg id="Layer_1" data-name="Layer 1" xmlns="http://www.w3.org/2000/svg" viewBox="0 0 146 116"><defs><style>.cls-1{fill:#120b47;}.cls-2{fill:#fff;}</style></defs><title>Artboard 1</title><path class="cls-1" d="M145,78l-1.66-.85a93.94,93.94,0,0,0-12.67-5.3l-.43-.15V60.23l-1-.18-1.76-.3,1.35-1.45,1-1-1-1L125,52.1l3-4.82.75-1.21-1.16-.82-4.59-3.32,2-5.29.51-1.33-1.28-.58L119,32.4l.92-5.6.23-1.38-1.38-.32-5.52-1.28-.18-5.68,0-1.4-1.4,0-5.67-.18L104.65,11l-.33-1.38-1.38.23-5.6.93L95,5.6l-.58-1.28-1.33.5-5.29,2L84.5,2.21l-.83-1.16-1.21.76-4.79,3L73.53,1,72.5,0l-1,1L67.33,4.82l-4.82-3-1.2-.75-.83,1.15-3.31,4.6-5.3-2-1.33-.5L50,5.62l-2.33,5.17L42,9.86l-1.38-.22L40.33,11l-1.28,5.52-5.67.17L32,16.76l0,1.41-.17,5.67-5.53,1.28-1.38.33.23,1.38L26,32.42l-5.17,2.34-1.28.57.5,1.33L22,42l-4.59,3.31-1.15.83L17,47.3l3,4.8-3.86,4.14-1,1,1,1,1.35,1.45-1.76.3-1,.18V71.72l-.43.15a92.86,92.86,0,0,0-12.67,5.3L0,78l1.41,1.23L8.06,85,5.32,95l-.68,2.54,2.41-1.06A103.93,103.93,0,0,1,27.88,90l.53-.1,3.36.78L32,96.39,32,97.8l1.4,0,5.67.17,1.28,5.52.33,1.38,1.38-.22,5.6-.93L50,108.94l.58,1.28,1.33-.5,5.29-2,3.31,4.6.83,1.15,1.21-.75,4.82-3,4.14,3.87,1,1,1-1,4.14-3.87,4.82,3,1.21.75.83-1.15,3.31-4.6,5.29,2,1.33.5.58-1.28,2.33-5.17,5.6.93,1.38.22.33-1.38L106,98l5.67-.17,1.4,0,0-1.41.18-5.67,3.36-.78.53.1A103.93,103.93,0,0,1,138,96.49l2.41,1.06L139.73,95,137,85l6.65-5.75L145,78Z"/><path class="cls-2" d="M43.34,30.39a1.34,1.34,0,0,1,.1-.83,2.35,2.35,0,0,1,.55-.8,2.56,2.56,0,0,1,.86-.58,1.65,1.65,0,0,1,.9-.1,1.42,1.42,0,0,1,.78.43l.07.07a.09.09,0,0,1,0,.08.07.07,0,0,1,0,.07l-.6.61a.12.12,0,0,1-.08,0,.1.1,0,0,1-.07,0l-.05-.05a.63.63,0,0,0-.55-.2,1,1,0,0,0-.66.35.81.81,0,0,0-.27.5.45.45,0,0,0,.15.43.61.61,0,0,0,.3.15,1.23,1.23,0,0,0,.4-.08,7.47,7.47,0,0,0,.7-.3c.36-.15.63-.28.83-.35a1.59,1.59,0,0,1,.7-.08,1.19,1.19,0,0,1,.73.38,1.37,1.37,0,0,1,.43,1.15,2.14,2.14,0,0,1-.7,1.28,2.86,2.86,0,0,1-.88.61,1.6,1.6,0,0,1-.88.1,1.37,1.37,0,0,1-.75-.43l-.13-.13a.1.1,0,0,1,0-.07.12.12,0,0,1,0-.08l.6-.6a.12.12,0,0,1,.08,0,.1.1,0,0,1,.07,0l.08.08a.55.55,0,0,0,.55.15,1.18,1.18,0,0,0,.68-.38.79.79,0,0,0,.3-.55.49.49,0,0,0-.15-.43.45.45,0,0,0-.3-.12,1,1,0,0,0-.38.07c-.15.05-.35.15-.65.28a8.17,8.17,0,0,1-.85.35,2,2,0,0,1-.76.07,1.08,1.08,0,0,1-.7-.37,1,1,0,0,1-.45-.68Zm3.21-3.89a.1.1,0,0,1,0-.07.08.08,0,0,1,0-.05l1.68-1.31a1.8,1.8,0,0,1,.83-.38,1.45,1.45,0,0,1,.8.1,1.53,1.53,0,0,1,.68.56,1.73,1.73,0,0,1,.35.8,1.3,1.3,0,0,1-.12.8,2.24,2.24,0,0,1-.58.7l-.85.66s0,0,0,.05l1.18,1.53a.1.1,0,0,1,0,.07.08.08,0,0,1,0,.05l-.71.53a.07.07,0,0,1-.07,0,.07.07,0,0,1-.05,0l-3.14-4Zm1.38.05.86,1.1s0,0,.05,0l.75-.57a.79.79,0,0,0,.32-.5.78.78,0,0,0-.65-.86.9.9,0,0,0-.58.18l-.75.58a0,0,0,0,0,0,.07Zm3.64-3.71-.75.45,0,.05v.07l2.56,4.4.05.05s0,0,.07,0l3-1.76s0,0,.05-.05,0-.05,0-.08l-.38-.62,0-.05s-.05,0-.07,0l-2.14,1.25s-.05,0-.05,0l-2.13-3.67-.05-.05S51.6,22.84,51.57,22.84ZM57,25.67l-.43-5.32c0-.05,0-.07,0-.1l1.11-.45c.05,0,.07,0,.12,0l3.44,4.09,0,0s0,.08-.05.1l-.88.38c-.05,0-.08,0-.13,0l-.5-.6s0,0,0,0l-1.71.7s0,0,0,.05l.08.75c0,.05,0,.1-.06.1l-.87.38H57S57,25.7,57,25.67Zm.65-4.41.25,2.3s0,.05,0,0l1.23-.5s0,0,0-.05l-1.48-1.81a0,0,0,0,0,0,0,.07.07,0,0,0,0,.05Zm3.44-2.51a1.52,1.52,0,0,0-.5.67,1.37,1.37,0,0,0,0,.83,1.22,1.22,0,0,0,.43.68,1.68,1.68,0,0,0,.7.33,6.45,6.45,0,0,0,.93.12c.33,0,.55.05.71.08a1.15,1.15,0,0,1,.37.12.38.38,0,0,1,.2.25.49.49,0,0,1-.07.45.86.86,0,0,1-.53.33,1.29,1.29,0,0,1-.78,0,.58.58,0,0,1-.4-.43l0-.1A.06.06,0,0,0,62,22s0,0-.08,0l-.83.23a.05.05,0,0,0-.05,0s0,.05,0,.07l.05.16a1.31,1.31,0,0,0,.45.72,1.6,1.6,0,0,0,.81.35,2.73,2.73,0,0,0,1.08-.07,2.26,2.26,0,0,0,1.25-.75,1.27,1.27,0,0,0,.2-1.21,1.12,1.12,0,0,0-.43-.68,1.67,1.67,0,0,0-.65-.3c-.22-.05-.52-.07-.9-.12s-.6-.05-.75-.08a1.18,1.18,0,0,1-.41-.12.47.47,0,0,1-.2-.28.47.47,0,0,1,.08-.45,1,1,0,0,1,.5-.3,1.06,1.06,0,0,1,.75,0,.82.82,0,0,1,.41.45l0,.06a.06.06,0,0,0,0,0s0,0,.08,0l.82-.23a.05.05,0,0,0,0-.05s0-.05,0-.08l0-.1a1.52,1.52,0,0,0-.45-.75,1.59,1.59,0,0,0-.83-.38,2.43,2.43,0,0,0-1,.08,2.29,2.29,0,0,0-.93.43Zm4.32-1.16a.09.09,0,0,0,0,.08l.66,5a.08.08,0,0,0,0,.05.09.09,0,0,0,.08,0l.87-.13a.08.08,0,0,0,0,0,.09.09,0,0,0,0-.08L66.8,20.5s0-.05,0-.05l1.65-.22s0,0,0,0l.28,2.06s0,.05,0,.05a.1.1,0,0,0,.07,0l.88-.12s0,0,0,0a.07.07,0,0,0,0-.07l-.66-5.05a.12.12,0,0,0,0-.05.12.12,0,0,0-.08,0l-.88.13,0,0a.12.12,0,0,0,0,.08l.25,2s0,.05,0,.05l-1.65.23s0,0,0,0l-.25-2a.07.07,0,0,0,0-.05.07.07,0,0,0-.07,0l-.88.13S65.42,17.57,65.4,17.59Zm6.87,4.49,1.94-5a.11.11,0,0,1,.1-.08l1.18.08c.05,0,.07,0,.1.08l1.33,5.16v.05c0,.06,0,.08-.08.06l-1-.06a.1.1,0,0,1-.1-.07l-.18-.75s0,0,0,0l-1.86-.1s0,0,0,0l-.25.72c0,.05-.05.08-.1.08l-1-.05a.07.07,0,0,1-.07,0c0-.05,0-.07,0-.1ZM74,20.58s0,.05,0,.05l1.33.07s0,0,0-.05l-.55-2.28s0,0,0,0,0,0,0,0L74,20.58Zm4.47,2.06c0,.05,0,.07.07.1l.81.17s.1,0,.12-.05l1.41-3a0,0,0,0,1,0,0l0,0,0,3.34s0,.07.07.1l.88.2s.1,0,.13,0l2.3-4.72a.08.08,0,0,0,0-.12l-.87-.21a.15.15,0,0,0-.13.05L82,21.28s0,0,0,0l0,0-.07-3.16a.11.11,0,0,0-.08-.1l-.88-.2a.13.13,0,0,0-.12.05L79.43,20.7a0,0,0,0,1,0,0l0,0,0-3.13a.1.1,0,0,0-.07-.1l-.91-.2c-.05,0-.07,0-.1.05v0l.18,5.3Zm4.41,1,3.34-4.17s.08,0,.13,0l1.1.43a.11.11,0,0,1,.08.1l-.3,5.34v.05c0,.05,0,.05-.1,0l-.91-.35a.12.12,0,0,1-.07-.11l.05-.77s0,0,0-.05l-1.73-.66s0,0,0,0l-.48.6c0,.05-.07.05-.12,0l-.91-.35a.06.06,0,0,1,0-.06s0-.05,0-.07ZM85,22.76l1.23.48s0,0,0,0l.18-2.33v0a0,0,0,0,0,0,0L85,22.74s0,0,0,0Zm5.42-1.63,1.89,1a1.84,1.84,0,0,1,.65.58,1.3,1.3,0,0,1,.22.75,1.72,1.72,0,0,1-.22.83,1.69,1.69,0,0,1-.65.65,1.27,1.27,0,0,1-.88.1s-.05,0-.05,0l-.13,2.35v.05a.07.07,0,0,1-.1,0l-.8-.45s-.08,0,0-.1l.17-2.29s0-.05,0-.05l-.6-.32s0,0,0,0l-1,1.81s0,0-.05.05h-.07l-.78-.43s0,0,0-.05v-.07l2.46-4.47s0,0,0-.05a0,0,0,0,1,.07,0Zm.4,1.31-.62,1.12s0,.05,0,.05l.86.48a.71.71,0,0,0,.55.08.6.6,0,0,0,.4-.33.67.67,0,0,0,.07-.53.71.71,0,0,0-.35-.42l-.85-.48c-.05,0-.08,0-.08,0Zm6.3,4.89L95.86,29a1.48,1.48,0,0,1-.67.53,1.46,1.46,0,0,1-.86.05,2.07,2.07,0,0,1-.9-.43L91.92,28s0,0,0-.05a.1.1,0,0,1,0-.07l3-4.09s0,0,.05,0a.09.09,0,0,1,.08,0l1.5,1.12a2.41,2.41,0,0,1,.68.76,1.51,1.51,0,0,1,.2.85A3,3,0,0,1,97.09,27.33Zm-.75-1.11A.74.74,0,0,0,96,25.7l-.72-.53a0,0,0,0,0-.05,0l-2,2.71s0,.05,0,.05l.73.55a.74.74,0,0,0,.57.15,1,1,0,0,0,.56-.37l1-1.38a.9.9,0,0,0,.23-.66Zm1.41,2.51a2,2,0,0,0,.07.76,4.9,4.9,0,0,0,.38.85c.15.3.22.5.3.65a1.23,1.23,0,0,1,.07.38.45.45,0,0,1-.12.3.55.55,0,0,1-.43.18.8.8,0,0,1-.55-.31,1.33,1.33,0,0,1-.4-.67.57.57,0,0,1,.15-.55l.07-.08a.09.09,0,0,0,0-.08.07.07,0,0,0,0-.07l-.62-.6a.09.09,0,0,0-.08,0,.07.07,0,0,0-.07,0l-.13.12a1.37,1.37,0,0,0-.4.78,1.59,1.59,0,0,0,.12.88,2.62,2.62,0,0,0,.63.88,2.3,2.3,0,0,0,1.31.67,1.29,1.29,0,0,0,1.15-.45,1,1,0,0,0,.35-.72,1.63,1.63,0,0,0-.07-.71c-.08-.2-.2-.5-.35-.83s-.25-.52-.33-.7a.86.86,0,0,1-.1-.4.41.41,0,0,1,.12-.3.47.47,0,0,1,.43-.15.81.81,0,0,1,.5.27,1,1,0,0,1,.35.66.75.75,0,0,1-.17.57l-.05.05a.09.09,0,0,0,0,.08.07.07,0,0,0,0,.07l.63.61a.1.1,0,0,0,.07,0,.12.12,0,0,0,.08,0l.07-.08a1.4,1.4,0,0,0,.4-.78,1.86,1.86,0,0,0-.1-.9,2.71,2.71,0,0,0-1.4-1.38,1.58,1.58,0,0,0-.83-.08,1.62,1.62,0,0,0-.73.41,1.24,1.24,0,0,0-.32.67ZM29,88V80.91c-4,.5-7.85,1.08-11.59,1.7Zm106.81-3.74,7-6a88.62,88.62,0,0,0-12.53-5.22v9.26a.58.58,0,0,1-.37.6l-12.52,5.85a104.39,104.39,0,0,1,21.08,6.55L135.59,85A.76.76,0,0,1,135.82,84.29Zm-121.06-2h0V73.08A92.08,92.08,0,0,0,2.23,78.3l7,6a.69.69,0,0,1,.21.66L6.55,95.34a105.92,105.92,0,0,1,21.08-6.55L15.11,82.94a.62.62,0,0,1-.35-.6ZM129,81.56V61.28A332,332,0,0,0,72.5,56.77,328.83,328.83,0,0,0,16,61.31V81.58c5.42-1,11.12-1.75,17-2.4a.87.87,0,0,0-.2,1.1.88.88,0,0,0,1.15.35.85.85,0,0,0,.48-.78.77.77,0,0,0-.1-.4s0-.07-.05-.1a.81.81,0,0,0-.33-.28,364.64,364.64,0,0,1,38.5-2,363.1,363.1,0,0,1,38.42,2,1,1,0,0,0-.2.21.54.54,0,0,0-.1.2.88.88,0,0,0,.55,1.1.87.87,0,0,0,1.06-.43.82.82,0,0,0,.1-.4.9.9,0,0,0-.2-.55c5.84.63,11.49,1.41,16.86,2.36Zm-13-.65V88l11.59-5.42C123.84,82,120,81.41,116,80.91ZM72.8,27.71l4.67,4.64a6.58,6.58,0,0,1,0,9.31,6.71,6.71,0,0,1-4.64,2A6.59,6.59,0,0,1,68.16,32.4l4.64-4.69Zm0,2.68L69.54,33.7a4.67,4.67,0,1,0,8,3.27,4.61,4.61,0,0,0-1.38-3.29l-3.31-3.29ZM63.37,50.74l19.09-.1V48.73l-19.09.11ZM85.7,40.23A19.16,19.16,0,0,1,81,43.67,10.39,10.39,0,0,0,83.37,37H81.46A8.6,8.6,0,0,1,64.27,37H62.36a10.48,10.48,0,0,0,2.46,6.68,18.71,18.71,0,0,1-4.77-3.39L58.7,41.71a20.05,20.05,0,0,0,28.36-.15ZM73.38,85.1l-.88-2.74-.88,2.74H68.74l2.33,1.68-.88,2.73,2.34-1.68,2.33,1.68L74,86.78l2.33-1.68ZM61.81,83.94l-.6-1.83-.61,1.83H58.7l1.55,1.13-.6,1.83,1.56-1.12,1.55,1.12-.6-1.83,1.56-1.13ZM39.07,38.45l1.56-1.13,1.56,1.13-.61-1.84,1.56-1.13H41.23l-.6-1.8L40,35.51H38.12l1.56,1.13ZM84.4,83.94l-.61-1.83-.6,1.83H81.28l1.56,1.13-.6,1.83,1.55-1.12,1.56,1.12-.6-1.83,1.55-1.13Zm18.41-45.49,1.56-1.13,1.56,1.13-.61-1.84,1.56-1.13H105l-.6-1.8-.6,1.83h-1.91l1.56,1.13-.61,1.81ZM76.16,13.38a.91.91,0,0,0,1-.66.75.75,0,0,0,0-.2.88.88,0,0,0-.65-.85.54.54,0,0,0-.2,0,.89.89,0,0,0-.88.88A.83.83,0,0,0,76.16,13.38Zm39.93,37.31a1.16,1.16,0,0,0,0,.28.88.88,0,0,0,1.1.55.86.86,0,0,0,.61-.83v-.12a.88.88,0,0,0-1.76.12Zm-6.17,31.5a.89.89,0,0,0-1.21.22.84.84,0,0,0,.18,1.18.88.88,0,0,0,1.23-.12s0,0,0,0a.9.9,0,0,0,.15-.48.91.91,0,0,0-.4-.75Zm5.47-35a.87.87,0,0,0,.85.73.89.89,0,0,0,.88-.88,1,1,0,0,0-.05-.27.88.88,0,0,0-1.11-.55A.85.85,0,0,0,115.39,47.15ZM106.5,85.32a.89.89,0,0,0,0,1.21.85.85,0,0,0,1.23,0l.07-.08a.85.85,0,0,0,.2-.55.86.86,0,0,0-.32-.68.87.87,0,0,0-1.21.1ZM68.64,13.38a.74.74,0,0,0,.25,0,.86.86,0,0,0,.62-.83,1.19,1.19,0,0,0,0-.25.88.88,0,0,0-1-.63.9.9,0,0,0-.77.88A.87.87,0,0,0,68.64,13.38Zm47.83,41.05a1,1,0,0,0,0,.25.89.89,0,0,0,1.08.6.85.85,0,0,0,.63-.82v-.1a.9.9,0,0,0-.88-.78A.84.84,0,0,0,116.47,54.43ZM65.05,13.85a.85.85,0,0,0,.72-.85.89.89,0,0,0-.87-.88.69.69,0,0,0-.25,0A.89.89,0,0,0,64,13.23.92.92,0,0,0,65.05,13.85Zm52.37,43.47a.88.88,0,1,0,.88.88A.89.89,0,0,0,117.42,57.32Zm-45-44.09h.1a.88.88,0,0,0,0-1.76h-.1a.88.88,0,1,0,0,1.76Zm40.7,26.9a.63.63,0,0,0,.1.2.89.89,0,0,0,1.21.25.91.91,0,0,0,.4-.73,1.06,1.06,0,0,0-.07-.38.87.87,0,0,0-1.08-.45A.89.89,0,0,0,113.1,40.13Zm-5.44-9.41a.85.85,0,0,0,1.23,0,.9.9,0,0,0,.25-.63,1,1,0,0,0-.2-.55.88.88,0,0,0-1.43,1l.15.15Zm3.26,3.21a.91.91,0,0,0,.4-.73.85.85,0,0,0-.15-.48.88.88,0,0,0-1.2-.25.89.89,0,0,0-.25,1.21.88.88,0,0,0,1.2.25Zm-5.52-6a.85.85,0,0,0,1.2-.25.9.9,0,0,0,.15-.48.81.81,0,0,0-.25-.6.86.86,0,0,0-1.13-.12.88.88,0,0,0-.25,1.2,1.26,1.26,0,0,0,.28.25Zm-8.53-7.35a.86.86,0,0,0,1.2-.25.9.9,0,0,0,.15-.48.84.84,0,0,0-.4-.73.86.86,0,0,0-1.2.25.89.89,0,0,0,.25,1.21ZM90.39,17a.91.91,0,0,0,1.11-.3.87.87,0,0,0,.15-.47.85.85,0,0,0-.4-.73.75.75,0,0,0-.2-.1.88.88,0,0,0-1.11.55A.87.87,0,0,0,90.39,17Zm13.35,8.24a.94.94,0,0,0,.41-.73A.84.84,0,0,0,104,24a1.18,1.18,0,0,0-.25-.25.85.85,0,0,0-1.2.25.88.88,0,0,0,.12,1.13.91.91,0,0,0,1.08.08ZM93.66,18.62a.54.54,0,0,0,.2.1.88.88,0,0,0,1.1-.55.92.92,0,0,0,.05-.28.87.87,0,0,0-1.61-.47.88.88,0,0,0,.26,1.2ZM112.6,37.29a.85.85,0,0,0,.6-.83.86.86,0,0,0,0-.27.42.42,0,0,0-.1-.2.87.87,0,0,0-1.5.87.9.9,0,0,0,1,.43Zm1.81,6.33a.88.88,0,0,0,1,.6.87.87,0,0,0,.66-.86.42.42,0,0,0,0-.2.1.1,0,0,0,0-.07.89.89,0,0,0-1.11-.55A.85.85,0,0,0,114.41,43.62ZM87,15.66l.07,0a.85.85,0,0,0,1-.62.54.54,0,0,0,0-.2.86.86,0,0,0-.63-.83.89.89,0,0,0-1.08.55A.85.85,0,0,0,87,15.66Zm-3.62-1.08a.92.92,0,0,0,.28.05.89.89,0,0,0,.88-.88.87.87,0,0,0-.73-.85.85.85,0,0,0-1,.58.88.88,0,0,0,.55,1.1ZM104,88.08a.9.9,0,0,0,0,1.16.85.85,0,0,0,1.23.1.8.8,0,0,0,.13-.13.9.9,0,0,0,.2-.55.85.85,0,0,0-.33-.68,1,1,0,0,0-1.18.1ZM99.85,22.76a.86.86,0,0,0,1.16-.07.92.92,0,0,0,.25-.63.9.9,0,0,0-.25-.63.57.57,0,0,0-.13-.1.85.85,0,0,0-1.2.25.9.9,0,0,0,.17,1.18Zm-20.15-9a.92.92,0,0,0,.28,0,.89.89,0,0,0,.88-.88.87.87,0,0,0-.73-.85.87.87,0,0,0-.43,1.68ZM27.91,51.67a.83.83,0,0,0,1-.73v-.12a.87.87,0,0,0-.72-.86.9.9,0,0,0-1,.73v0A.9.9,0,0,0,27.91,51.67ZM46.65,93a.85.85,0,0,0-1.18.18.87.87,0,0,0,.13,1.23s0,0,0,0a.86.86,0,0,0,1.2-.25.9.9,0,0,0,.15-.48.92.92,0,0,0-.35-.73ZM49.76,95a.11.11,0,0,0-.1-.05.87.87,0,0,0-1.18.4.91.91,0,0,0,.33,1.15A.88.88,0,0,0,50,96.27a.93.93,0,0,0,.15-.48.89.89,0,0,0-.38-.75ZM53,96.79a.88.88,0,1,0-.78,1.58.86.86,0,0,0,1.18-.4,1,1,0,0,0,.1-.4A.88.88,0,0,0,53,96.79Zm8.51-82.18h0a.87.87,0,0,0,.61-.83A1.37,1.37,0,0,0,62,13.5a.87.87,0,0,0-1.66.53.87.87,0,0,0,1.08.58ZM59.83,99.5a.86.86,0,0,0-1.08.55.88.88,0,0,0,.55,1.11h0a.87.87,0,0,0,1.07-.6.66.66,0,0,0,0-.25.83.83,0,0,0-.6-.81ZM38.57,85.42a.86.86,0,0,0-1.23-.1.88.88,0,0,0-.12,1.23A.87.87,0,0,0,38.77,86a.72.72,0,0,0-.2-.58Zm-2.26-3a.88.88,0,0,0-1.4,1,.89.89,0,0,0,1.2.23.91.91,0,0,0,.4-.73.83.83,0,0,0-.15-.48s0-.05,0-.07Zm6.2,8.33a.9.9,0,0,0,.1,1.23h0a.87.87,0,0,0,1.23-.13.9.9,0,0,0,.2-.55.85.85,0,0,0-.33-.68.93.93,0,0,0-1.23.13Zm-2.63-2.69a.88.88,0,0,0-.13,1.23l.08.08a.85.85,0,0,0,1.23,0,.9.9,0,0,0,.25-.63,1,1,0,0,0-.23-.6A.88.88,0,0,0,39.88,88.08ZM56.39,98.32a.44.44,0,0,0-.15,0,.88.88,0,0,0-.55,1.66.85.85,0,0,0,1.1-.43.68.68,0,0,0,.1-.4.83.83,0,0,0-.5-.78ZM85.3,99.45a.87.87,0,0,0-.6,1.06.85.85,0,0,0,1,.62.12.12,0,0,0,.08,0,.87.87,0,0,0,.6-.83,1.37,1.37,0,0,0-.05-.28A.91.91,0,0,0,85.3,99.45Zm-3.54.93a.1.1,0,0,0-.08,0,.85.85,0,0,0-.62,1,.9.9,0,0,0,1,.65.88.88,0,0,0,.7-.85v-.15a.94.94,0,0,0-1-.73Zm7-2.13a.87.87,0,0,0,.52,1.65l.18-.07a.86.86,0,0,0,.48-.78.85.85,0,0,0-.1-.4.89.89,0,0,0-1.08-.4Zm3.33-1.51a.88.88,0,1,0,.78,1.58.86.86,0,0,0,.48-.77.88.88,0,0,0-.1-.41A.84.84,0,0,0,92.12,96.74ZM78.05,101a.85.85,0,0,0-.73,1,.86.86,0,0,0,1,.75h0a.88.88,0,0,0,.73-.85v-.15A.88.88,0,0,0,78.05,101Zm-7.33.3a.86.86,0,0,0-.91.75.89.89,0,0,0,.76,1h.1a.89.89,0,0,0,.88-.88A.87.87,0,0,0,70.72,101.31Zm-3.67-.3a.84.84,0,0,0-1,.73.88.88,0,0,0,.72,1h0a.86.86,0,0,0,1-.75v-.13A.9.9,0,0,0,67.05,101Zm-3.66-.6a.87.87,0,0,0-.48,1.68.39.39,0,0,0,.15,0,.85.85,0,0,0,1-.75v-.13A.8.8,0,0,0,63.39,100.41Zm11,.9h-.1a.86.86,0,0,0-.75,1,.85.85,0,0,0,.9.75.88.88,0,0,0,.83-.88A.87.87,0,0,0,74.43,101.31ZM27.58,59.17a.88.88,0,1,0-.88-.87A.87.87,0,0,0,27.58,59.17Zm73.83,31.37a.58.58,0,0,0-.2.18.87.87,0,0,0,1.25,1.2.83.83,0,0,0,.3-.65.85.85,0,0,0-.15-.48.88.88,0,0,0-1.2-.25Zm-3,2.36-.13.1a.85.85,0,0,0,0,1.23.86.86,0,0,0,1.48-.6.83.83,0,0,0-.15-.48.84.84,0,0,0-1.2-.25Zm-58.75-65a.91.91,0,0,0,.23-.58.9.9,0,0,0-.25-.63.85.85,0,0,0-1.23,0s0,.05-.05.05a.88.88,0,0,0,.1,1.23.83.83,0,0,0,1.2-.07Zm2.51-2.59a.3.3,0,0,0,.13-.12,1,1,0,0,0,.2-.56A.88.88,0,0,0,41.06,24a.87.87,0,0,0,1.15,1.3Zm2.84-2.43a.91.91,0,0,0,.35-.71.82.82,0,0,0-.15-.47A.89.89,0,0,0,44,21.41s0,0,0,.05a.88.88,0,0,0-.12,1.23.87.87,0,0,0,1.18.15Zm12.84-7.13a.86.86,0,0,0,.61-.83.8.8,0,0,0,0-.25.89.89,0,0,0-1.08-.6h0a.87.87,0,0,0-.55,1.1.84.84,0,0,0,1.07.58Zm-3.48,1.38.15-.08a.88.88,0,0,0,.45-.75.64.64,0,0,0-.13-.42.85.85,0,0,0-1.1-.38.87.87,0,0,0,.63,1.63ZM27.65,55.41a.86.86,0,0,0,.88-.83v0a.86.86,0,0,0-.75-.85.85.85,0,0,0-1,.75v.13A.82.82,0,0,0,27.65,55.41ZM51.17,18.72a.86.86,0,0,0,.48-.78,1.28,1.28,0,0,0,0-.27.89.89,0,0,0-1.11-.56.64.64,0,0,0-.2.11.87.87,0,0,0,.88,1.5ZM48,20.63s0,0,0-.05a.85.85,0,0,0,.33-.68.78.78,0,0,0-.2-.55A.87.87,0,0,0,47,19.2a.9.9,0,0,0-.22,1.2A1,1,0,0,0,48,20.63ZM28.46,47.93a.88.88,0,0,0,1.1-.55.65.65,0,0,0,.05-.18v-.1a.9.9,0,0,0-.78-.87.85.85,0,0,0-.95.67A.87.87,0,0,0,28.46,47.93Zm1-3.61a.88.88,0,0,0,1.1-.55s0-.05,0-.08a.75.75,0,0,0,0-.2.89.89,0,0,0-.65-.85.87.87,0,0,0-1.06.6A.92.92,0,0,0,29.44,44.32Zm2.81-7A.88.88,0,0,0,33.4,37a.83.83,0,0,0,.13-.43.88.88,0,0,0-1.61-.48s-.05,0-.05.1a.81.81,0,0,0,.38,1.16ZM95.36,95A.84.84,0,0,0,95,96.09a.9.9,0,0,0,1.17.4s.08,0,.11,0a.9.9,0,0,0,.4-.73.82.82,0,0,0-.15-.47A.89.89,0,0,0,95.36,95ZM30.64,40.73a.86.86,0,0,0,1.18-.4s.05-.13.08-.18a.75.75,0,0,0,0-.2.87.87,0,0,0-1.68-.32A.85.85,0,0,0,30.64,40.73ZM34,34a.85.85,0,0,0,1.2-.25.11.11,0,0,0,.05-.1.68.68,0,0,0,.1-.4.86.86,0,0,0-.47-.78.92.92,0,0,0-1.16.33A.91.91,0,0,0,34,34Zm2.13-3.08a.9.9,0,0,0,1.18-.18.85.85,0,0,0,.2-.55.87.87,0,0,0-1.48-.63.57.57,0,0,0-.1.13.86.86,0,0,0,.2,1.23ZM106.6,42.86a34.75,34.75,0,0,1,2.16,7,39.35,39.35,0,0,1,.76,7.28l1.25.13a39,39,0,0,0-.78-7.66,37.25,37.25,0,0,0-2.23-7.17.61.61,0,0,0-.83-.33.62.62,0,0,0-.33.8ZM98.67,83.44A36.72,36.72,0,0,1,86.9,91.37a35,35,0,0,1-7,2.16,37.53,37.53,0,0,1-14.93,0,35.2,35.2,0,0,1-6.95-2.16A38.35,38.35,0,0,1,51.77,88a36.5,36.5,0,0,1-5.47-4.52A35.07,35.07,0,0,1,43,79.7l-1.48.13a35.16,35.16,0,0,0,3.86,4.49A37.85,37.85,0,0,0,51.09,89a40.94,40.94,0,0,0,6.5,3.54,38.28,38.28,0,0,0,7.18,2.23,38.45,38.45,0,0,0,15.41,0,38.28,38.28,0,0,0,7.18-2.23,38.81,38.81,0,0,0,12.17-8.21,42.14,42.14,0,0,0,3.86-4.49l-1.48-.13a32.77,32.77,0,0,1-3.24,3.74ZM37.24,42.36A37.56,37.56,0,0,0,35,49.54a39.32,39.32,0,0,0-.78,7.65c.43,0,.83-.1,1.25-.12a35.42,35.42,0,0,1,.76-7.28,34.35,34.35,0,0,1,2.16-6.95.67.67,0,0,0-.33-.83A.69.69,0,0,0,37.24,42.36Z"/><path class="cls-1" d="M52.75,61.71s0,.12,0,.22c-.88,4-1.71,8-2.53,11.93a.31.31,0,0,1-.28.25l-2.81.17c-.18,0-.28,0-.33-.2-.55-2-1.13-4-1.7-6,0,0,0,0,0,0a.05.05,0,0,0-.05,0l-.68,6.1c0,.18-.1.25-.25.28-.88.07-1.73.12-2.61.2a.29.29,0,0,1-.2,0,.47.47,0,0,1-.13-.15c-1.48-3.82-3-7.61-4.59-11.42a.09.09,0,0,1,0-.08c0-.15.08-.22.23-.22,1-.1,2.06-.2,3.09-.28a.26.26,0,0,1,.3.2c.67,1.86,1.33,3.72,2,5.57,0,0,0,0,.05,0s0,0,0-.07l.75-5.8a.27.27,0,0,1,.3-.25c.88-.07,1.76-.12,2.66-.2a.27.27,0,0,1,.3.2c.58,1.88,1.16,3.74,1.73,5.62,0,0,0,.08,0,.08s.05,0,.05-.08c.33-1.93.66-3.86,1-5.79a.29.29,0,0,1,.27-.26l3.11-.17a.45.45,0,0,1,.23.1Zm5.37-.25a.3.3,0,0,0-.2-.08c-1,0-1.91.08-2.86.13a.27.27,0,0,0-.2.07.3.3,0,0,0-.08.2c.18,3.92.35,7.83.53,11.77a.24.24,0,0,0,.08.2.18.18,0,0,0,.2,0c.92,0,1.85-.07,2.78-.12a.27.27,0,0,0,.28-.28c-.15-3.91-.28-7.83-.43-11.77a.37.37,0,0,0-.1-.17ZM71,61.21a.28.28,0,0,0-.2-.08c-1,0-1.9,0-2.86,0a.29.29,0,0,0-.2.07.24.24,0,0,0-.07.2l.07,5.85s0,.08,0,.08,0,0-.08,0c-1.23-2-2.48-3.94-3.76-5.93a.36.36,0,0,0-.33-.17l-2.73.07a.32.32,0,0,0-.21.08.27.27,0,0,0-.07.2c.13,3.91.25,7.85.35,11.77a.3.3,0,0,0,.08.2.27.27,0,0,0,.2.07l2.78-.07a.28.28,0,0,0,.2-.08.25.25,0,0,0,.08-.2l-.15-5.84s0-.08,0-.08,0,0,.08,0c1.25,2,2.48,3.94,3.71,5.92a.35.35,0,0,0,.33.18l2.66,0a.29.29,0,0,0,.2-.07.24.24,0,0,0,.07-.2c0-3.92,0-7.86,0-11.77a.69.69,0,0,0-.13-.2Zm12.68.1-2.86-.08a.28.28,0,0,0-.2.08.25.25,0,0,0-.08.2c0,2-.07,3.89-.13,5.85a.1.1,0,0,1,0,.07s0,0-.08-.05c-1.15-2-2.35-4-3.56-6a.33.33,0,0,0-.33-.18l-2.73,0a.27.27,0,0,0-.2.07.25.25,0,0,0-.08.2c0,3.92,0,7.86-.05,11.77a.28.28,0,0,0,.08.2.25.25,0,0,0,.2.08c.93,0,1.86,0,2.78,0a.3.3,0,0,0,.21-.07.24.24,0,0,0,.07-.2c0-2,0-3.89,0-5.85a.08.08,0,0,1,0-.07.07.07,0,0,1,.07,0c1.18,2,2.36,4,3.51,6a.34.34,0,0,0,.31.18l2.66.07a.29.29,0,0,0,.2-.07.24.24,0,0,0,.07-.2c.13-3.92.25-7.86.38-11.77a.31.31,0,0,0-.3-.3Zm11.52.52c-2.89-.17-5.78-.32-8.66-.42a.39.39,0,0,0-.2.05.25.25,0,0,0-.08.2Q86,67.52,85.8,73.43a.3.3,0,0,0,.08.2.24.24,0,0,0,.2.07c2.78.1,5.59.26,8.38.43a.42.42,0,0,0,.2,0,.24.24,0,0,0,.07-.2c0-.78.1-1.53.15-2.31a.42.42,0,0,0,0-.2.24.24,0,0,0-.2-.07c-1.75-.1-3.53-.21-5.29-.28,0,0-.08,0-.08-.1,0-.6,0-1.21.08-1.83,0,0,0-.08.1-.08,1.1,0,2.18.1,3.29.18a.59.59,0,0,0,.2,0,.24.24,0,0,0,.07-.2c0-.76.08-1.53.13-2.29a.59.59,0,0,0,0-.2.24.24,0,0,0-.2-.07c-1.11,0-2.21-.13-3.32-.18,0,0-.1,0-.07-.1l.07-1.66s0-.07.11-.07c1.8.07,3.58.17,5.39.3a.39.39,0,0,0,.2,0,.25.25,0,0,0,.08-.2l.15-2.31a.59.59,0,0,0,0-.2l-.25-.08Zm9.31,8.09c.62,1.6,1.23,3.21,1.83,4.81a.59.59,0,0,1,0,.13.12.12,0,0,1-.07.12.21.21,0,0,1-.18,0l-2.93-.28c-.15,0-.25-.07-.28-.22-.53-1.53-1-3.06-1.58-4.62,0,0,0-.08-.1-.08-.25,0-.5,0-.75,0a.09.09,0,0,0-.1.08c-.1,1.46-.23,2.91-.33,4.37a.19.19,0,0,1-.08.17.26.26,0,0,1-.2.05c-.93-.07-1.85-.12-2.78-.2a.27.27,0,0,1-.2-.07.28.28,0,0,1,0-.2c.27-3.92.52-7.83.8-11.75A.19.19,0,0,1,97.6,62a.26.26,0,0,1,.2,0c1.83.12,3.66.27,5.49.42a4.74,4.74,0,0,1,2.13.68,3.47,3.47,0,0,1,1.33,1.51,4,4,0,0,1,.33,2.08,3.45,3.45,0,0,1-2.48,3.08c-.08,0-.1.08-.1.16Zm-.81-3.49a1,1,0,0,0-.3-.86,1.33,1.33,0,0,0-.9-.37c-.55,0-1.13-.1-1.68-.13a.09.09,0,0,0-.1.08c0,.67-.1,1.35-.15,2,0,.06,0,.11.07.11.55,0,1.13.07,1.68.12a1.42,1.42,0,0,0,1-.23,1,1,0,0,0,.42-.77Z"/></svg>