<?xml version="1.0" encoding="utf-8"?>
<!-- Generator: Adobe Illustrator 23.1.1, SVG Export Plug-In . SVG Version: 6.00 Build 0)  -->
<svg version="1.1" id="Layer_1" xmlns="http://www.w3.org/2000/svg" xmlns:xlink="http://www.w3.org/1999/xlink" x="0px" y="0px"
	 viewBox="0 0 146 116" style="enable-background:new 0 0 146 116;" xml:space="preserve">
<style type="text/css">
	.st0{fill:#3232FF;}
	.st1{fill:#FFFFFF;}
</style>
<g>
	<g>
		<path class="st0" d="M146,78.5l-1.7-0.9c-3.9-2-8.2-3.8-12.8-5.3l-0.4-0.2V61.7v-1.1l-1-0.2c-0.6-0.1-1.2-0.2-1.8-0.3l1.4-1.5l1-1
			l-1-1l-3.9-4.2l3-4.9l0.8-1.2l-1.2-0.8l-4.6-3.3l2-5.3l0.5-1.3L125,35l-5.2-2.3l0.9-5.6l0.2-1.4l-1.4-0.3L114,24l-0.2-5.7
			l-0.1-1.4l-1.4-0.1l-5.7-0.2l-1.3-5.6L105,9.7l-1.4,0.2L98,10.9l-2.3-5.2l-0.6-1.3l-1.3,0.5l-5.3,2l-3.3-4.6l-0.8-1.2L83,1.9
			l-4.8,3L74,1l-1-1l-1,1l-4.2,3.9l-4.9-3l-1.2-0.8l-0.8,1.2l-3.3,4.6l-5.3-2l-1.3-0.5l-0.6,1.3L48,10.9L42.4,10L41,9.7l-0.3,1.4
			l-1.3,5.6l-5.7,0.2l-1.4,0.1l-0.1,1.4L32,24l-5.6,1.3l-1.4,0.3l0.2,1.4l0.9,5.6L21,35l-1.3,0.6l0.5,1.3l2,5.3l-4.6,3.3l-1.2,0.8
			l0.8,1.2l3,4.8l-3.9,4.2l-1,1l1,1l1.4,1.5c-0.6,0.1-1.2,0.2-1.8,0.3l-1,0.2v1.1v10.5l-0.4,0.2c-4.6,1.5-8.9,3.3-12.8,5.3L0,78.5
			l1.4,1.2l6.7,5.8L5.4,95.6l-0.7,2.6l2.4-1.1c6.4-2.8,13.5-5,21-6.5l0.5-0.1l3.4,0.8l0.2,5.7l0.1,1.4l1.4,0.1l5.7,0.2l1.3,5.6
			l0.3,1.4l1.4-0.2l5.6-0.9l2.3,5.2l0.6,1.3l1.3-0.5l5.3-2l3.3,4.6l0.8,1.2l1.2-0.8l4.9-3l4.2,3.9l1,1l1-1l4.2-3.9l4.9,3l1.2,0.8
			l0.8-1.2l3.3-4.6l5.3,2l1.3,0.5l0.6-1.3l2.3-5.2l5.6,0.9l1.4,0.2l0.3-1.4l1.3-5.6l5.7-0.2l1.4-0.1l0.1-1.4l0.2-5.7l3.4-0.8
			l0.5,0.1c7.5,1.5,14.6,3.7,21,6.5l2.4,1.1l-0.7-2.6l-2.8-10.1l6.7-5.8L146,78.5z"/>
		<path class="st1" d="M43.6,30.6c-0.1-0.3,0-0.6,0.1-0.8c0.1-0.3,0.3-0.6,0.6-0.8c0.3-0.3,0.6-0.5,0.9-0.6c0.3-0.1,0.6-0.2,0.9-0.1
			c0.3,0.1,0.6,0.2,0.8,0.4l0.1,0.1c0,0,0,0.1,0,0.1c0,0,0,0.1,0,0.1l-0.6,0.6c0,0-0.1,0-0.1,0s-0.1,0-0.1,0l-0.1-0.1
			c-0.2-0.2-0.3-0.2-0.6-0.2c-0.2,0-0.5,0.1-0.7,0.4c-0.2,0.2-0.3,0.3-0.3,0.5c0,0.2,0,0.3,0.2,0.4c0.1,0.1,0.2,0.1,0.3,0.2
			c0.1,0,0.3,0,0.4-0.1c0.2-0.1,0.4-0.2,0.7-0.3c0.4-0.2,0.6-0.3,0.8-0.4c0.2-0.1,0.5-0.1,0.7-0.1c0.3,0,0.5,0.2,0.7,0.4
			c0.3,0.3,0.5,0.7,0.4,1.2c-0.1,0.4-0.3,0.9-0.7,1.3c-0.3,0.3-0.6,0.5-0.9,0.6s-0.6,0.2-0.9,0.1c-0.3-0.1-0.5-0.2-0.8-0.4l-0.1-0.1
			c0,0,0-0.1,0-0.1s0-0.1,0-0.1l0.6-0.6c0,0,0.1,0,0.1,0s0.1,0,0.1,0l0.1,0.1c0.2,0.2,0.3,0.2,0.6,0.2c0.2,0,0.5-0.2,0.7-0.4
			c0.2-0.2,0.3-0.4,0.3-0.6c0-0.2-0.1-0.3-0.2-0.4c-0.1-0.1-0.2-0.1-0.3-0.1c-0.1,0-0.3,0-0.4,0.1c-0.2,0.1-0.4,0.2-0.7,0.3
			c-0.3,0.2-0.6,0.3-0.9,0.4c-0.3,0.1-0.5,0.1-0.8,0.1s-0.5-0.2-0.7-0.4C43.8,31.1,43.7,30.8,43.6,30.6z M46.9,26.7
			C46.9,26.7,46.9,26.6,46.9,26.7c0-0.1,0-0.1,0-0.1l1.7-1.3c0.3-0.2,0.5-0.3,0.8-0.4c0.3-0.1,0.6,0,0.8,0.1
			c0.3,0.1,0.5,0.3,0.7,0.6c0.2,0.3,0.3,0.5,0.4,0.8c0,0.3,0,0.6-0.1,0.8c-0.1,0.3-0.3,0.5-0.6,0.7l-0.9,0.7c0,0,0,0,0,0.1l1.2,1.5
			c0,0,0,0.1,0,0.1c0,0,0,0.1,0,0.1l-0.7,0.5c0,0-0.1,0-0.1,0s-0.1,0-0.1,0L46.9,26.7z M48.3,26.7l0.9,1.1c0,0,0,0,0.1,0l0.8-0.6
			c0.2-0.2,0.3-0.3,0.3-0.5s0-0.4-0.2-0.6c-0.1-0.2-0.3-0.3-0.5-0.3c-0.2,0-0.4,0.1-0.6,0.2L48.3,26.7
			C48.3,26.7,48.3,26.7,48.3,26.7z M51.9,23l-0.8,0.5c0,0,0,0-0.1,0.1c0,0,0,0.1,0,0.1l2.6,4.4c0,0,0,0,0.1,0.1c0,0,0.1,0,0.1,0
			l3-1.8c0,0,0,0,0.1-0.1c0,0,0-0.1,0-0.1l-0.4-0.6c0,0,0,0-0.1-0.1s-0.1,0-0.1,0l-2.1,1.3c0,0-0.1,0-0.1,0L52,23
			C52,23,52,23,51.9,23C52,23,52,23,51.9,23z M57.4,25.8L57,20.5c0-0.1,0-0.1,0.1-0.1l1.1-0.5c0.1,0,0.1,0,0.1,0l3.5,4.1l0,0
			c0,0.1,0,0.1-0.1,0.1l-0.9,0.4c-0.1,0-0.1,0-0.1,0L60.2,24c0,0,0,0-0.1,0l-1.7,0.7c0,0,0,0,0,0.1l0.1,0.8c0,0.1,0,0.1-0.1,0.1
			l-0.9,0.4c0,0-0.1,0-0.1,0C57.4,25.9,57.4,25.9,57.4,25.8z M58.1,21.4l0.3,2.3c0,0,0,0.1,0.1,0l1.2-0.5c0,0,0,0,0-0.1L58.1,21.4
			C58.1,21.3,58.1,21.3,58.1,21.4C58.1,21.4,58.1,21.4,58.1,21.4z M61.5,18.9c-0.2,0.2-0.4,0.4-0.5,0.7c-0.1,0.3-0.1,0.5,0,0.8
			s0.2,0.5,0.4,0.7c0.2,0.2,0.4,0.3,0.7,0.3c0.3,0.1,0.6,0.1,0.9,0.1c0.3,0,0.6,0.1,0.7,0.1c0.2,0,0.3,0.1,0.4,0.1
			c0.1,0.1,0.2,0.2,0.2,0.3c0.1,0.2,0,0.3-0.1,0.5c-0.1,0.2-0.3,0.3-0.5,0.3c-0.3,0.1-0.6,0.1-0.8,0c-0.2-0.1-0.4-0.2-0.4-0.4l0-0.1
			c0,0,0-0.1-0.1-0.1s-0.1,0-0.1,0l-0.8,0.2c0,0-0.1,0-0.1,0.1c0,0,0,0.1,0,0.1l0.1,0.2c0.1,0.3,0.2,0.6,0.5,0.7
			c0.2,0.2,0.5,0.3,0.8,0.4c0.3,0.1,0.7,0,1.1-0.1c0.6-0.2,1-0.4,1.3-0.8c0.3-0.4,0.3-0.8,0.2-1.2c-0.1-0.3-0.2-0.5-0.4-0.7
			c-0.2-0.2-0.4-0.3-0.7-0.3c-0.2-0.1-0.5-0.1-0.9-0.1c-0.4,0-0.6-0.1-0.8-0.1c-0.2,0-0.3-0.1-0.4-0.1c-0.1-0.1-0.2-0.2-0.2-0.3
			c-0.1-0.2,0-0.3,0.1-0.5c0.1-0.1,0.3-0.2,0.5-0.3c0.3-0.1,0.5-0.1,0.8,0c0.2,0.1,0.3,0.3,0.4,0.5l0,0.1c0,0,0,0.1,0.1,0.1
			c0,0,0.1,0,0.1,0l0.8-0.2c0,0,0.1,0,0.1-0.1c0,0,0-0.1,0-0.1l0-0.1c-0.1-0.3-0.2-0.6-0.5-0.8s-0.5-0.3-0.8-0.4s-0.7,0-1,0.1
			C62,18.5,61.8,18.7,61.5,18.9z M65.9,17.7C65.8,17.7,65.8,17.8,65.9,17.7l0.6,5.2c0,0,0,0.1,0,0.1c0,0,0.1,0,0.1,0l0.9-0.1
			c0,0,0.1,0,0.1,0c0,0,0-0.1,0-0.1l-0.3-2.1c0,0,0-0.1,0-0.1l1.7-0.2c0,0,0.1,0,0.1,0l0.3,2.1c0,0,0,0.1,0,0.1c0,0,0.1,0,0.1,0
			l0.9-0.1c0,0,0.1,0,0.1,0c0,0,0-0.1,0-0.1l-0.7-5.1c0,0,0-0.1,0-0.1c0,0-0.1,0-0.1,0l-0.9,0.1c0,0-0.1,0-0.1,0c0,0,0,0.1,0,0.1
			l0.3,2c0,0,0,0.1,0,0.1l-1.7,0.2c0,0-0.1,0-0.1,0l-0.3-2c0,0,0-0.1,0-0.1c0,0-0.1,0-0.1,0L65.9,17.7
			C65.9,17.7,65.9,17.7,65.9,17.7z M72.8,22.2l1.9-5c0-0.1,0.1-0.1,0.1-0.1l1.2,0.1c0.1,0,0.1,0,0.1,0.1l1.3,5.2c0,0,0,0,0,0.1
			c0,0.1,0,0.1-0.1,0.1l-1-0.1c-0.1,0-0.1,0-0.1-0.1l-0.2-0.8c0,0,0,0,0,0l-1.9-0.1c0,0,0,0-0.1,0l-0.3,0.7c0,0.1-0.1,0.1-0.1,0.1
			l-1-0.1c0,0-0.1,0-0.1,0C72.8,22.3,72.8,22.3,72.8,22.2z M74.5,20.7C74.5,20.7,74.5,20.8,74.5,20.7l1.4,0.1c0,0,0.1,0,0-0.1
			l-0.6-2.3c0,0,0,0,0,0c0,0,0,0,0,0L74.5,20.7z M79,22.8c0,0.1,0,0.1,0.1,0.1l0.8,0.2c0.1,0,0.1,0,0.1-0.1l1.4-3c0,0,0,0,0,0l0,0
			l0.1,3.4c0,0.1,0,0.1,0.1,0.1l0.9,0.2c0.1,0,0.1,0,0.1-0.1l2.3-4.7c0-0.1,0-0.1-0.1-0.1L84,18.5c-0.1,0-0.1,0-0.1,0.1l-1.3,2.9
			c0,0,0,0,0,0l0,0l-0.1-3.2c0-0.1,0-0.1-0.1-0.1l-0.9-0.2c-0.1,0-0.1,0-0.1,0.1L80,20.8c0,0,0,0,0,0l0,0l0-3.2c0-0.1,0-0.1-0.1-0.1
			l-0.9-0.2c-0.1,0-0.1,0-0.1,0.1v0L79,22.8z M83.4,23.8l3.4-4.2c0-0.1,0.1-0.1,0.1,0L88,20c0.1,0,0.1,0.1,0.1,0.1l-0.3,5.4
			c0,0,0,0,0,0.1c0,0.1-0.1,0.1-0.1,0l-0.9-0.4c-0.1,0-0.1-0.1-0.1-0.1l0.1-0.8c0,0,0,0,0-0.1L85,23.6c0,0,0,0-0.1,0l-0.5,0.6
			c0,0.1-0.1,0.1-0.1,0l-0.9-0.4C83.4,23.9,83.4,23.9,83.4,23.8C83.4,23.8,83.4,23.8,83.4,23.8z M85.6,22.9l1.2,0.5c0,0,0.1,0,0.1,0
			L87,21c0,0,0,0,0,0s0,0,0,0L85.6,22.9C85.5,22.9,85.5,22.9,85.6,22.9z M91,21.3l1.9,1c0.3,0.2,0.5,0.4,0.7,0.6
			c0.2,0.2,0.2,0.5,0.2,0.8c0,0.3-0.1,0.6-0.2,0.8c-0.2,0.3-0.4,0.5-0.7,0.7c-0.3,0.1-0.6,0.2-0.9,0.1c0,0-0.1,0-0.1,0l-0.1,2.4
			c0,0,0,0.1,0,0.1c0,0-0.1,0.1-0.1,0l-0.8-0.5c-0.1,0-0.1-0.1-0.1-0.1l0.2-2.3c0,0,0-0.1,0-0.1l-0.6-0.3c0,0-0.1,0-0.1,0l-1,1.8
			c0,0,0,0-0.1,0.1c0,0-0.1,0-0.1,0l-0.8-0.4c0,0,0,0-0.1-0.1c0,0,0-0.1,0-0.1l2.5-4.5C90.9,21.3,90.9,21.3,91,21.3
			C91,21.2,91,21.2,91,21.3z M91.4,22.6l-0.6,1.1c0,0,0,0.1,0,0.1l0.9,0.5c0.2,0.1,0.4,0.1,0.6,0.1s0.3-0.2,0.4-0.3
			c0.1-0.2,0.1-0.4,0.1-0.5c-0.1-0.2-0.2-0.3-0.4-0.4L91.4,22.6C91.5,22.5,91.4,22.6,91.4,22.6z M97.8,27.5l-1.2,1.7
			c-0.2,0.3-0.4,0.4-0.7,0.5c-0.3,0.1-0.6,0.1-0.9,0.1c-0.3-0.1-0.6-0.2-0.9-0.4l-1.5-1.1c0,0,0,0,0-0.1c0,0,0-0.1,0-0.1l3.1-4.1
			c0,0,0,0,0.1,0c0,0,0.1,0,0.1,0l1.5,1.1c0.3,0.2,0.5,0.5,0.7,0.8c0.2,0.3,0.2,0.6,0.2,0.9C98.1,27,98,27.3,97.8,27.5z M97,26.4
			c0-0.2-0.1-0.4-0.3-0.5L96,25.3c0,0-0.1,0-0.1,0l-2,2.7c0,0,0,0.1,0,0.1l0.7,0.6c0.2,0.1,0.4,0.2,0.6,0.2c0.2-0.1,0.4-0.2,0.6-0.4
			l1-1.4C97,26.8,97,26.6,97,26.4z M98.4,28.9c0,0.3,0,0.5,0.1,0.8c0.1,0.3,0.2,0.5,0.4,0.9c0.2,0.3,0.2,0.5,0.3,0.7
			c0.1,0.2,0.1,0.3,0.1,0.4c0,0.1-0.1,0.2-0.1,0.3C99,32,98.9,32,98.7,32s-0.4-0.1-0.6-0.3c-0.2-0.2-0.4-0.5-0.4-0.7s0-0.4,0.2-0.6
			l0.1-0.1c0,0,0-0.1,0-0.1c0,0,0-0.1,0-0.1l-0.6-0.6c0,0-0.1,0-0.1,0c0,0-0.1,0-0.1,0l-0.1,0.1c-0.2,0.2-0.4,0.5-0.4,0.8
			c-0.1,0.3,0,0.6,0.1,0.9c0.1,0.3,0.3,0.6,0.6,0.9c0.4,0.4,0.9,0.6,1.3,0.7c0.5,0.1,0.8-0.1,1.2-0.5c0.2-0.2,0.4-0.5,0.4-0.7
			c0-0.3,0-0.5-0.1-0.7c-0.1-0.2-0.2-0.5-0.4-0.8c-0.2-0.3-0.3-0.5-0.3-0.7c-0.1-0.2-0.1-0.3-0.1-0.4c0-0.1,0.1-0.2,0.1-0.3
			c0.1-0.1,0.3-0.2,0.4-0.2c0.2,0,0.3,0.1,0.5,0.3c0.2,0.2,0.3,0.4,0.4,0.7c0,0.2-0.1,0.4-0.2,0.6l-0.1,0.1c0,0,0,0.1,0,0.1
			c0,0,0,0.1,0,0.1l0.6,0.6c0,0,0.1,0,0.1,0c0,0,0.1,0,0.1,0l0.1-0.1c0.2-0.2,0.4-0.5,0.4-0.8c0.1-0.3,0-0.6-0.1-0.9
			c-0.1-0.3-0.3-0.6-0.6-0.9c-0.3-0.3-0.5-0.4-0.8-0.5c-0.3-0.1-0.6-0.1-0.8-0.1c-0.3,0.1-0.5,0.2-0.7,0.4
			C98.6,28.4,98.5,28.6,98.4,28.9z M29.2,88.6v-7.2c-4,0.5-7.9,1.1-11.7,1.7L29.2,88.6z M136.8,84.9l7-6c-3.9-2-8.1-3.8-12.6-5.3
			v9.3l0,0c0,0.3-0.1,0.5-0.4,0.6l-12.6,5.9c7.6,1.5,14.7,3.7,21.2,6.6l-2.9-10.5C136.5,85.3,136.6,85,136.8,84.9z M14.9,82.9
			L14.9,82.9v-9.3c-4.5,1.5-8.7,3.3-12.6,5.3l7,6c0.2,0.2,0.3,0.4,0.2,0.7L6.6,96c6.5-2.8,13.6-5.1,21.2-6.6l-12.6-5.9
			C15,83.4,14.9,83.1,14.9,82.9z M129.9,82.1V61.7c-16.9-3-36.5-4.5-56.9-4.5s-40,1.6-56.9,4.6v20.4c5.5-1,11.2-1.8,17.2-2.4
			c-0.3,0.3-0.4,0.7-0.2,1.1c0.2,0.4,0.7,0.6,1.2,0.4c0.3-0.2,0.5-0.5,0.5-0.8c0-0.1,0-0.3-0.1-0.4c0,0,0-0.1-0.1-0.1
			c-0.1-0.1-0.2-0.2-0.3-0.3c12.2-1.3,25.3-2,38.8-2c13.4,0,26.5,0.7,38.7,2c-0.1,0.1-0.2,0.1-0.2,0.2c-0.1,0.1-0.1,0.1-0.1,0.2
			c-0.2,0.5,0.1,1,0.6,1.1c0.4,0.2,0.9-0.1,1.1-0.4c0.1-0.1,0.1-0.3,0.1-0.4c0-0.2-0.1-0.4-0.2-0.6
			C118.8,80.4,124.5,81.2,129.9,82.1z M116.8,81.5v7.2l11.7-5.5C124.7,82.5,120.8,82,116.8,81.5z M73.3,27.9l4.7,4.7
			c2.6,2.6,2.6,6.8,0.1,9.4c-1.3,1.3-3,1.9-4.7,2c-1.7,0-3.4-0.6-4.7-1.9c-2.6-2.6-2.6-6.8-0.1-9.4L73.3,27.9z M73.3,30.6L70,33.9
			c-0.9,0.9-1.4,2.1-1.4,3.3s0.5,2.4,1.4,3.3c1.8,1.8,4.8,1.8,6.6,0c0.9-0.9,1.4-2.1,1.4-3.3s-0.5-2.4-1.4-3.3L73.3,30.6z
			 M63.8,51.1L83,51v-1.9l-19.2,0.1V51.1z M86.3,40.5c-1.4,1.4-3,2.6-4.7,3.5c1.5-1.8,2.4-4.2,2.4-6.7H82c0,4.8-3.8,8.7-8.6,8.7
			c-4.8,0-8.7-3.8-8.7-8.6h-1.9c0,2.6,0.9,4.9,2.5,6.7c-1.7-0.9-3.4-2-4.8-3.4L59.1,42c3.8,3.8,8.9,5.9,14.3,5.8
			c5.4,0,10.5-2.1,14.2-6L86.3,40.5z M73.9,85.7L73,82.9l-0.9,2.8h-2.9l2.3,1.7l-0.9,2.8l2.3-1.7l2.3,1.7l-0.9-2.8l2.3-1.7H73.9z
			 M62.3,84.5l-0.6-1.8L61,84.5h-1.9l1.6,1.1l-0.6,1.8l1.6-1.1l1.6,1.1l-0.6-1.8l1.6-1.1H62.3z M39.4,38.7l1.6-1.1l1.6,1.1l-0.6-1.8
			l1.6-1.1h-1.9l-0.6-1.8l-0.6,1.8h-1.9l1.6,1.1L39.4,38.7z M85,84.5l-0.6-1.8l-0.6,1.8h-1.9l1.6,1.1l-0.6,1.8l1.6-1.1l1.6,1.1
			l-0.6-1.8l1.6-1.1H85z M103.5,38.7l1.6-1.1l1.6,1.1l-0.6-1.8l1.6-1.1h-1.9l-0.6-1.8l-0.6,1.8h-1.9l1.6,1.1L103.5,38.7z M76.7,13.5
			c0.4,0.1,0.8-0.2,1-0.7c0-0.1,0-0.2,0-0.2c0-0.4-0.3-0.8-0.7-0.9c-0.1,0-0.2,0-0.2,0c-0.5,0-0.9,0.4-0.9,0.9
			C75.9,13,76.2,13.4,76.7,13.5z M116.9,51c0,0.1,0,0.2,0.1,0.3c0.2,0.5,0.7,0.7,1.1,0.6c0.4-0.1,0.6-0.5,0.6-0.8c0-0.1,0-0.1,0-0.1
			c-0.1-0.4-0.4-0.8-0.9-0.8C117.3,50.1,116.9,50.6,116.9,51z M110.7,82.7c-0.4-0.3-0.9-0.2-1.2,0.2c-0.3,0.4-0.2,0.9,0.2,1.2
			c0.4,0.3,0.9,0.3,1.2-0.1c0,0,0-0.1,0.1-0.1c0.1-0.2,0.2-0.3,0.2-0.5C111.1,83.2,110.9,82.9,110.7,82.7z M116.2,47.5
			c0.1,0.4,0.4,0.7,0.9,0.7c0.5,0,0.9-0.4,0.9-0.9c0-0.1,0-0.2-0.1-0.3c-0.2-0.5-0.7-0.7-1.1-0.6C116.4,46.6,116.1,47,116.2,47.5z
			 M107.2,85.9c-0.3,0.4-0.3,0.9,0,1.2c0.4,0.4,0.9,0.4,1.2,0c0,0,0.1-0.1,0.1-0.1c0.1-0.2,0.2-0.4,0.2-0.6c0-0.3-0.1-0.5-0.3-0.7
			C108.1,85.5,107.5,85.5,107.2,85.9z M69.1,13.5c0.1,0,0.2,0,0.3,0c0.4-0.1,0.6-0.5,0.6-0.8c0-0.1,0-0.2,0-0.3
			c-0.1-0.4-0.5-0.7-1-0.6c-0.4,0.1-0.8,0.4-0.8,0.9C68.2,13.1,68.6,13.5,69.1,13.5z M117.3,54.8c0,0.1,0,0.2,0,0.3
			c0.1,0.5,0.6,0.7,1.1,0.6c0.4-0.1,0.6-0.5,0.6-0.8c0,0,0-0.1,0-0.1c-0.1-0.4-0.4-0.8-0.9-0.8C117.7,53.9,117.3,54.3,117.3,54.8z
			 M65.5,13.9c0.4-0.1,0.7-0.4,0.7-0.9c0-0.5-0.4-0.9-0.9-0.9c-0.1,0-0.2,0-0.3,0c-0.5,0.1-0.7,0.6-0.6,1.1
			C64.7,13.7,65.1,14,65.5,13.9z M118.2,57.7c-0.5,0-0.9,0.4-0.9,0.9c0,0.5,0.4,0.9,0.9,0.9s0.9-0.4,0.9-0.9l0,0
			C119.1,58.1,118.7,57.7,118.2,57.7z M72.9,13.3C72.9,13.3,72.9,13.3,72.9,13.3c0.1,0,0.1,0,0.1,0c0.5,0,0.9-0.4,0.9-0.9
			c0-0.5-0.4-0.9-0.9-0.9l0,0c0,0,0,0-0.1,0s0,0-0.1,0l0,0c-0.5,0-0.9,0.4-0.9,0.9C72,12.9,72.4,13.3,72.9,13.3z M113.9,40.4
			c0,0.1,0.1,0.2,0.1,0.2c0.3,0.4,0.8,0.5,1.2,0.3c0.3-0.2,0.4-0.5,0.4-0.7c0-0.1,0-0.3-0.1-0.4c-0.2-0.4-0.7-0.6-1.1-0.5
			C114,39.4,113.7,39.9,113.9,40.4z M108.4,30.9c0.4,0.4,0.9,0.4,1.2,0c0.2-0.2,0.3-0.4,0.3-0.6c0-0.2-0.1-0.4-0.2-0.6
			c-0.3-0.4-0.8-0.4-1.2-0.2c-0.4,0.3-0.5,0.8-0.3,1.2C108.4,30.8,108.4,30.9,108.4,30.9z M111.7,34.2c0.3-0.2,0.4-0.5,0.4-0.7
			c0-0.2-0.1-0.3-0.2-0.5l0,0c-0.3-0.4-0.8-0.5-1.2-0.3c-0.4,0.3-0.5,0.8-0.3,1.2C110.8,34.3,111.3,34.4,111.7,34.2z M106.1,28.1
			c0.4,0.3,1,0.2,1.2-0.3c0.1-0.2,0.2-0.3,0.2-0.5c0-0.2-0.1-0.4-0.3-0.6c-0.3-0.3-0.8-0.4-1.1-0.1c-0.4,0.3-0.5,0.8-0.3,1.2
			C106,28,106,28.1,106.1,28.1z M97.6,20.7c0.4,0.3,1,0.2,1.2-0.3c0.1-0.2,0.2-0.3,0.2-0.5c0-0.3-0.1-0.6-0.4-0.7l0,0
			c-0.4-0.3-1-0.2-1.2,0.3C97,19.9,97.2,20.4,97.6,20.7z M91,17.1c0.4,0.2,0.9,0.1,1.1-0.3c0.1-0.2,0.2-0.3,0.2-0.5
			c0-0.3-0.1-0.6-0.4-0.7c-0.1-0.1-0.1-0.1-0.2-0.1c-0.5-0.2-1,0.1-1.1,0.6C90.4,16.5,90.6,16.9,91,17.1z M104.5,25.4
			c0.3-0.2,0.4-0.5,0.4-0.7c0-0.2-0.1-0.3-0.2-0.5c-0.1-0.1-0.2-0.2-0.3-0.3c-0.4-0.3-1-0.2-1.2,0.3c-0.3,0.4-0.2,0.8,0.1,1.1
			C103.7,25.6,104.1,25.6,104.5,25.4z M94.3,18.7c0.1,0.1,0.1,0.1,0.2,0.1c0.5,0.2,1-0.1,1.1-0.6c0-0.1,0.1-0.2,0.1-0.3
			c0-0.3-0.2-0.6-0.5-0.8c-0.4-0.2-0.9-0.1-1.1,0.3C93.8,17.9,93.9,18.5,94.3,18.7z M113.4,37.5c0.4-0.1,0.6-0.5,0.6-0.8
			c0-0.1,0-0.2-0.1-0.3c0-0.1-0.1-0.2-0.1-0.2c-0.3-0.4-0.8-0.5-1.2-0.3c-0.4,0.3-0.5,0.7-0.3,1.1C112.5,37.5,113,37.7,113.4,37.5z
			 M115.2,43.9c0.1,0.5,0.6,0.7,1.1,0.6c0.4-0.1,0.7-0.5,0.7-0.9c0-0.1,0-0.2,0-0.2c0,0,0-0.1,0-0.1c-0.2-0.5-0.7-0.7-1.1-0.6
			C115.3,43,115.1,43.5,115.2,43.9z M87.6,15.8C87.6,15.8,87.7,15.8,87.6,15.8c0.6,0.2,1-0.2,1.1-0.6c0-0.1,0-0.2,0-0.2
			c0-0.4-0.3-0.7-0.6-0.8c-0.5-0.1-0.9,0.1-1.1,0.6C86.9,15.1,87.2,15.6,87.6,15.8z M84,14.7c0.1,0,0.2,0.1,0.3,0.1
			c0.5,0,0.9-0.4,0.9-0.9c0-0.4-0.3-0.8-0.7-0.9c-0.4-0.1-0.9,0.2-1,0.6C83.3,14,83.5,14.5,84,14.7z M104.7,88.7
			c-0.3,0.3-0.3,0.8-0.1,1.2c0.3,0.4,0.9,0.4,1.2,0.1c0.1,0,0.1-0.1,0.1-0.1c0.1-0.2,0.2-0.4,0.2-0.6c0-0.3-0.1-0.5-0.3-0.7
			C105.6,88.3,105,88.4,104.7,88.7z M100.6,22.9c0.4,0.3,0.9,0.3,1.2-0.1c0.2-0.2,0.3-0.4,0.3-0.6s-0.1-0.5-0.3-0.6
			c-0.1-0.1-0.1-0.1-0.1-0.1c-0.4-0.3-1-0.2-1.2,0.3C100.1,22.1,100.2,22.6,100.6,22.9z M80.3,13.9c0.1,0,0.2,0.1,0.3,0.1
			c0.5,0,0.9-0.4,0.9-0.9c0-0.4-0.3-0.8-0.7-0.9c-0.4-0.1-0.9,0.2-1,0.6C79.6,13.2,79.8,13.7,80.3,13.9z M28.1,52
			c0.5,0.1,0.9-0.3,1-0.7c0-0.1,0-0.1,0-0.1c0-0.4-0.3-0.8-0.7-0.9c-0.5-0.1-0.9,0.3-1,0.7v0C27.3,51.5,27.6,51.9,28.1,52z M47,93.6
			c-0.4-0.3-0.9-0.2-1.2,0.2c-0.3,0.4-0.3,0.9,0.1,1.2c0,0,0.1,0,0.1,0.1c0.4,0.3,1,0.2,1.2-0.3c0.1-0.2,0.2-0.3,0.2-0.5
			C47.3,94,47.2,93.8,47,93.6z M50.1,95.7c0,0-0.1-0.1-0.1-0.1c-0.4-0.2-1-0.1-1.2,0.4c-0.2,0.4-0.1,0.9,0.3,1.2
			c0.4,0.2,0.9,0.1,1.2-0.3c0.1-0.2,0.2-0.3,0.2-0.5C50.5,96.1,50.4,95.9,50.1,95.7z M53.3,97.4c-0.4-0.2-1-0.1-1.2,0.4
			c-0.2,0.4-0.1,1,0.4,1.2l0,0c0.4,0.2,1,0.1,1.2-0.4c0.1-0.1,0.1-0.3,0.1-0.4C53.8,97.9,53.6,97.6,53.3,97.4z M61.9,14.7L61.9,14.7
			c0.4-0.1,0.6-0.5,0.6-0.8c0-0.1,0-0.2-0.1-0.3c-0.2-0.5-0.6-0.7-1.1-0.6c-0.5,0.1-0.7,0.6-0.6,1.1C60.9,14.6,61.4,14.8,61.9,14.7z
			 M60.3,100.2c-0.5-0.2-0.9,0.1-1.1,0.6s0.1,1,0.6,1.1h0c0.5,0.1,1-0.1,1.1-0.6c0-0.1,0-0.2,0-0.3
			C60.9,100.6,60.6,100.3,60.3,100.2z M38.9,86c-0.3-0.4-0.9-0.4-1.2-0.1c-0.4,0.3-0.4,0.9-0.1,1.2s0.9,0.4,1.2,0.1
			c0.2-0.2,0.3-0.4,0.3-0.7C39.1,86.4,39,86.2,38.9,86C38.9,86,38.9,86,38.9,86z M36.6,83c-0.3-0.4-0.9-0.4-1.2-0.1
			c-0.4,0.3-0.4,0.8-0.2,1.2c0.3,0.4,0.8,0.5,1.2,0.2c0.3-0.2,0.4-0.5,0.4-0.7C36.8,83.4,36.7,83.2,36.6,83C36.6,83,36.6,83,36.6,83
			z M42.8,91.4c-0.3,0.4-0.3,0.9,0.1,1.2c0,0,0,0,0,0c0.4,0.3,0.9,0.3,1.2-0.1c0.1-0.2,0.2-0.4,0.2-0.6c0-0.3-0.1-0.5-0.3-0.7
			C43.7,91,43.1,91,42.8,91.4z M40.2,88.7c-0.4,0.3-0.4,0.9-0.1,1.2c0,0,0.1,0.1,0.1,0.1c0.4,0.4,0.9,0.4,1.2,0
			c0.2-0.2,0.3-0.4,0.3-0.6c0-0.2-0.1-0.4-0.2-0.6C41.1,88.4,40.5,88.4,40.2,88.7z M56.8,99c-0.1,0-0.1-0.1-0.2-0.1
			c-0.5-0.1-1,0.1-1.1,0.6c-0.1,0.4,0.1,0.9,0.5,1.1c0.4,0.2,0.9,0,1.1-0.4c0.1-0.1,0.1-0.3,0.1-0.4C57.3,99.4,57.1,99.1,56.8,99z
			 M85.9,100.1c-0.5,0.1-0.7,0.6-0.6,1.1c0.1,0.5,0.6,0.8,1.1,0.6c0,0,0.1,0,0.1,0c0.4-0.1,0.6-0.5,0.6-0.8c0-0.1,0-0.2-0.1-0.3
			C86.8,100.2,86.4,100,85.9,100.1z M82.3,101.1C82.3,101.1,82.3,101.1,82.3,101.1c-0.6,0.2-0.8,0.6-0.7,1.1s0.6,0.7,1,0.7
			c0.4-0.1,0.7-0.5,0.7-0.9c0-0.1,0-0.1,0-0.2C83.2,101.3,82.8,101,82.3,101.1z M89.4,98.9c-0.4,0.2-0.7,0.6-0.5,1
			c0.1,0.5,0.6,0.8,1.1,0.6c0.1,0,0.1-0.1,0.2-0.1c0.3-0.2,0.5-0.5,0.5-0.8c0-0.1,0-0.3-0.1-0.4C90.3,98.9,89.8,98.8,89.4,98.9z
			 M92.8,97.4c-0.4,0.2-0.6,0.8-0.4,1.2c0.2,0.4,0.8,0.6,1.2,0.4l0,0c0.3-0.2,0.5-0.5,0.5-0.8c0-0.1,0-0.3-0.1-0.4
			C93.7,97.4,93.2,97.2,92.8,97.4z M78.6,101.7c-0.5,0.1-0.8,0.5-0.7,1c0.1,0.5,0.5,0.8,1,0.8h0c0.4-0.1,0.7-0.5,0.7-0.9
			c0-0.1,0-0.1,0-0.2C79.5,101.9,79.1,101.6,78.6,101.7z M71.2,102c-0.5,0-0.9,0.3-0.9,0.8c-0.1,0.5,0.3,0.9,0.8,1c0,0,0.1,0,0.1,0
			c0.5,0,0.9-0.4,0.9-0.9C72.1,102.4,71.7,102,71.2,102z M67.5,101.7c-0.5-0.1-0.9,0.3-1,0.7c-0.1,0.5,0.3,0.9,0.7,1h0
			c0.5,0.1,0.9-0.3,1-0.8c0-0.1,0-0.1,0-0.1C68.3,102.1,68,101.8,67.5,101.7z M63.8,101.1c-0.4-0.1-0.9,0.2-1,0.6
			c-0.2,0.5,0.1,1,0.6,1.1c0.1,0,0.1,0,0.2,0c0.5,0.1,0.9-0.3,1-0.8c0-0.1,0-0.1,0-0.1C64.5,101.5,64.2,101.2,63.8,101.1z M75,102
			c0,0-0.1,0-0.1,0c-0.5,0.1-0.8,0.5-0.8,1c0.1,0.5,0.5,0.8,0.9,0.8c0.5,0,0.8-0.4,0.8-0.9C75.8,102.4,75.4,102,75,102z M27.8,59.6
			c0.5,0,0.9-0.4,0.9-0.9c0-0.5-0.4-0.9-0.9-0.9c-0.5,0-0.9,0.4-0.9,0.9l0,0C26.9,59.2,27.3,59.6,27.8,59.6z M102.1,91.2
			c-0.1,0.1-0.2,0.1-0.2,0.2c-0.3,0.4-0.3,0.9,0.1,1.2c0.3,0.3,0.8,0.3,1.1,0c0.2-0.2,0.3-0.4,0.3-0.7c0-0.2-0.1-0.3-0.2-0.5
			C103.1,91,102.5,90.9,102.1,91.2z M99.2,93.5c-0.1,0-0.1,0.1-0.1,0.1c-0.4,0.4-0.4,0.9,0,1.2c0.3,0.3,0.8,0.4,1.2,0.1
			c0.2-0.2,0.3-0.4,0.3-0.7c0-0.2-0.1-0.3-0.2-0.5C100.1,93.4,99.6,93.2,99.2,93.5z M40,28c0.2-0.2,0.2-0.4,0.2-0.6
			c0-0.2-0.1-0.5-0.3-0.6c-0.4-0.4-0.9-0.4-1.2,0c0,0,0,0.1-0.1,0.1c-0.3,0.4-0.3,0.9,0.1,1.2C39.1,28.4,39.7,28.4,40,28z
			 M42.5,25.4c0.1,0,0.1-0.1,0.1-0.1c0.1-0.2,0.2-0.4,0.2-0.6c0-0.3-0.1-0.5-0.3-0.7c-0.4-0.3-0.9-0.3-1.2,0.1
			C41,24.4,41,25,41.3,25.3C41.6,25.7,42.1,25.7,42.5,25.4z M45.4,23c0.2-0.2,0.4-0.4,0.4-0.7c0-0.2-0.1-0.3-0.2-0.5
			c-0.3-0.4-0.8-0.5-1.2-0.3c0,0-0.1,0-0.1,0.1c-0.4,0.3-0.4,0.9-0.1,1.2C44.4,23.2,45,23.2,45.4,23z M58.3,15.8
			c0.4-0.1,0.6-0.5,0.6-0.8c0-0.1,0-0.2,0-0.3c-0.1-0.5-0.6-0.7-1.1-0.6h0c-0.5,0.2-0.7,0.7-0.6,1.1C57.3,15.7,57.9,15.9,58.3,15.8z
			 M54.8,17.2c0.1,0,0.1-0.1,0.2-0.1c0.3-0.2,0.5-0.5,0.5-0.8c0-0.2,0-0.3-0.1-0.4c-0.2-0.4-0.7-0.6-1.1-0.4
			c-0.4,0.2-0.6,0.7-0.5,1.1C53.8,17.1,54.3,17.4,54.8,17.2z M27.8,55.8c0.5,0,0.9-0.4,0.9-0.8c0,0,0,0,0-0.1c0-0.4-0.3-0.8-0.8-0.9
			c-0.5-0.1-0.9,0.3-1,0.8c0,0.1,0,0.1,0,0.1C27,55.4,27.4,55.8,27.8,55.8z M51.5,18.8c0.3-0.2,0.5-0.5,0.5-0.8c0-0.1,0-0.2-0.1-0.3
			c-0.2-0.5-0.7-0.7-1.1-0.6c-0.1,0-0.2,0.1-0.2,0.1c-0.4,0.3-0.5,0.8-0.3,1.2C50.7,18.9,51.1,19,51.5,18.8z M48.4,20.8
			C48.4,20.7,48.4,20.7,48.4,20.8c0.3-0.2,0.4-0.5,0.4-0.7c0-0.2-0.1-0.4-0.2-0.6c-0.3-0.4-0.8-0.4-1.2-0.2
			c-0.4,0.3-0.5,0.8-0.2,1.2C47.4,20.9,48,21,48.4,20.8z M28.6,48.3c0.5,0.2,1-0.1,1.1-0.6c0-0.1,0-0.1,0.1-0.2c0,0,0-0.1,0-0.1
			c0-0.4-0.3-0.8-0.8-0.9c-0.5-0.1-0.9,0.2-1,0.7C28,47.6,28.2,48.1,28.6,48.3z M29.7,44.6c0.5,0.2,1-0.1,1.1-0.6c0,0,0-0.1,0-0.1
			c0-0.1,0-0.2,0-0.2c0-0.4-0.3-0.8-0.7-0.9c-0.5-0.1-0.9,0.2-1.1,0.6S29.2,44.4,29.7,44.6z M32.5,37.6c0.4,0.2,0.9,0.1,1.2-0.4
			c0.1-0.1,0.1-0.3,0.1-0.4c0-0.3-0.1-0.6-0.4-0.7c-0.4-0.3-1-0.2-1.2,0.3c0,0-0.1,0.1-0.1,0.1C31.9,36.8,32,37.3,32.5,37.6z
			 M96,95.6c-0.4,0.2-0.6,0.7-0.3,1.1c0.2,0.4,0.8,0.6,1.2,0.4c0,0,0.1,0,0.1-0.1c0.3-0.2,0.4-0.5,0.4-0.7c0-0.2-0.1-0.3-0.2-0.5
			C97,95.5,96.4,95.4,96,95.6z M30.9,41c0.4,0.2,1,0.1,1.2-0.4c0-0.1,0.1-0.1,0.1-0.2c0-0.1,0-0.2,0-0.2c0-0.4-0.3-0.8-0.7-0.9
			c-0.4-0.1-0.9,0.1-1,0.5C30.3,40.3,30.5,40.8,30.9,41z M34.3,34.2c0.4,0.3,1,0.2,1.2-0.3c0,0,0.1-0.1,0.1-0.1
			c0.1-0.1,0.1-0.3,0.1-0.4c0-0.3-0.2-0.6-0.5-0.8c-0.4-0.2-0.9-0.1-1.2,0.3C33.8,33.4,33.9,34,34.3,34.2z M36.4,31.1
			c0.4,0.3,0.9,0.2,1.2-0.2c0.1-0.2,0.2-0.4,0.2-0.6c0-0.2-0.1-0.5-0.3-0.6c-0.4-0.4-0.9-0.4-1.2,0c-0.1,0.1-0.1,0.1-0.1,0.1
			C35.9,30.3,36,30.8,36.4,31.1z M107.3,43.2c1,2.2,1.7,4.6,2.2,7s0.7,4.9,0.8,7.3c0.4,0.1,0.8,0.1,1.3,0.1c0-2.6-0.3-5.2-0.8-7.7
			c-0.5-2.5-1.3-4.9-2.2-7.2c-0.1-0.3-0.5-0.5-0.8-0.3C107.4,42.4,107.2,42.8,107.3,43.2z M99.4,84c-1.7,1.7-3.5,3.2-5.5,4.5
			c-2,1.3-4.1,2.5-6.3,3.4c-2.2,1-4.6,1.7-7,2.2c-4.9,1-10.1,1-15,0c-2.4-0.5-4.7-1.2-7-2.2c-2.2-0.9-4.3-2.1-6.3-3.4
			c-2-1.3-3.8-2.9-5.5-4.5c-1.2-1.2-2.3-2.4-3.3-3.8c-0.5,0.1-1,0.1-1.5,0.1c1.2,1.6,2.5,3.1,3.9,4.5c1.7,1.7,3.7,3.3,5.7,4.7
			c2.1,1.4,4.3,2.6,6.5,3.6c2.3,1,4.7,1.7,7.2,2.2c2.5,0.5,5.2,0.8,7.8,0.8c2.6,0,5.2-0.3,7.8-0.8c2.5-0.5,4.9-1.3,7.2-2.2
			c2.3-1,4.5-2.2,6.5-3.6c2-1.4,4-3,5.7-4.7c1.4-1.4,2.7-2.9,3.9-4.5c-0.5-0.1-1-0.1-1.5-0.1C101.6,81.6,100.6,82.8,99.4,84z
			 M37.5,42.6c-1,2.3-1.7,4.7-2.2,7.2c-0.5,2.5-0.8,5.1-0.8,7.7c0.4-0.1,0.8-0.1,1.3-0.1c0-2.5,0.3-4.9,0.8-7.3
			c0.5-2.4,1.2-4.7,2.2-7c0.1-0.3,0-0.7-0.3-0.8C38,42.2,37.6,42.3,37.5,42.6z"/>
	</g>
	<g>
		<path class="st0" d="M23.9,73.5C23.8,73.5,23.8,73.5,23.9,73.5c-0.9-2-1.8-4-2.6-5.9c0,0,0,0,0-0.1c0-0.1,0-0.1,0.1-0.1
			c0.5-0.1,1-0.1,1.6-0.2c0.1,0,0.1,0,0.2,0.1c0.4,1,0.8,1.9,1.1,2.9c0,0,0,0,0,0c0,0,0,0,0,0c0.1-1,0.2-2,0.3-3
			c0-0.1,0.1-0.1,0.2-0.1c0.5-0.1,0.9-0.1,1.3-0.2c0.1,0,0.1,0,0.2,0.1c0.4,1,0.7,1.9,1,2.9c0,0,0,0,0,0s0,0,0-0.1
			c0.1-1,0.2-2,0.4-3c0-0.1,0.1-0.1,0.1-0.1c0.5-0.1,1.1-0.1,1.6-0.2c0.1,0,0.1,0,0.1,0c0,0,0,0.1,0,0.1c-0.3,2.1-0.7,4.2-1,6.2
			c0,0.1-0.1,0.1-0.1,0.1c-0.5,0.1-1,0.1-1.4,0.2c-0.1,0-0.2,0-0.2-0.1c-0.3-1-0.7-2-1-3c0,0,0,0,0,0s0,0,0,0
			c-0.1,1.1-0.2,2.1-0.2,3.2c0,0.1-0.1,0.1-0.1,0.2C24.8,73.4,24.4,73.4,23.9,73.5C24,73.5,23.9,73.5,23.9,73.5z"/>
		<path class="st0" d="M35.2,67.4c0,0-0.1,0.1-0.1,0.1c-0.9,0.1-1.8,0.2-2.8,0.3c0,0-0.1,0-0.1,0.1c0,0.3,0.1,0.6,0.1,0.9
			c0,0,0,0.1,0.1,0.1c0.6-0.1,1.1-0.1,1.7-0.2c0.1,0,0.1,0,0.1,0c0,0,0.1,0.1,0.1,0.1c0,0.4,0.1,0.8,0.1,1.2c0,0.1,0,0.1,0,0.1
			c0,0-0.1,0.1-0.1,0.1c-0.6,0.1-1.1,0.1-1.7,0.2c0,0-0.1,0-0.1,0.1c0,0.3,0.1,0.6,0.1,0.9c0,0,0,0.1,0.1,0.1
			c0.9-0.1,1.8-0.2,2.7-0.3c0.1,0,0.1,0,0.1,0c0,0,0.1,0.1,0.1,0.1c0,0.4,0.1,0.8,0.1,1.2c0,0.1,0,0.1,0,0.1c0,0-0.1,0.1-0.1,0.1
			c-1.4,0.1-2.9,0.3-4.3,0.4c-0.1,0-0.1,0-0.1,0c0,0-0.1-0.1-0.1-0.1c-0.2-2-0.4-4-0.6-6.1c0-0.1,0-0.1,0-0.1c0,0,0.1-0.1,0.1-0.1
			c1.5-0.2,2.9-0.3,4.4-0.4c0.1,0,0.1,0,0.1,0c0,0,0.1,0.1,0.1,0.1C35.1,66.5,35.2,66.9,35.2,67.4C35.3,67.3,35.3,67.4,35.2,67.4z"
			/>
		<path class="st0" d="M40.6,68.6c0.3,0.1,0.5,0.3,0.7,0.5c0.2,0.2,0.2,0.5,0.3,0.8c0.1,0.6-0.1,1.1-0.6,1.4c-0.4,0.3-1,0.5-1.7,0.6
			c-0.8,0.1-1.6,0.1-2.5,0.2c-0.1,0-0.1,0-0.1,0c0,0-0.1-0.1-0.1-0.1c-0.2-2-0.4-4-0.5-6.1c0-0.1,0-0.1,0-0.1c0,0,0.1-0.1,0.1-0.1
			c0.8-0.1,1.6-0.2,2.4-0.2c0.8-0.1,1.4,0,1.8,0.3s0.7,0.7,0.7,1.3C41.3,67.8,41.1,68.3,40.6,68.6C40.6,68.6,40.6,68.6,40.6,68.6z
			 M38,67.2c0,0.3,0.1,0.6,0.1,0.9c0,0,0,0.1,0.1,0.1c0.3,0,0.5-0.1,0.8-0.1c0.5,0,0.7-0.2,0.6-0.6c0-0.3-0.3-0.5-0.7-0.5
			C38.6,67.1,38.4,67.2,38,67.2C38.1,67.2,38,67.2,38,67.2z M39.8,69.9c0-0.3-0.3-0.5-0.7-0.5c-0.3,0-0.6,0.1-0.8,0.1
			c0,0-0.1,0-0.1,0.1c0,0.3,0.1,0.6,0.1,1c0,0,0,0.1,0.1,0.1c0.3,0,0.6-0.1,0.8-0.1C39.7,70.5,39.9,70.3,39.8,69.9z"/>
		<path class="st0" d="M43.9,71.4c-0.4-0.1-0.7-0.4-0.9-0.7c-0.2-0.3-0.4-0.6-0.4-1c0-0.1,0-0.1,0-0.1c0-0.1,0-0.1,0-0.1
			s0.1-0.1,0.1-0.1c0.5,0,0.9-0.1,1.4-0.1c0.1,0,0.1,0,0.1,0c0,0,0.1,0.1,0.1,0.1c0,0,0,0,0,0.1c0,0.2,0.1,0.3,0.3,0.4
			c0.2,0.1,0.4,0.2,0.7,0.2c0.2,0,0.4-0.1,0.5-0.2c0.1-0.1,0.1-0.2,0.1-0.3s-0.1-0.2-0.2-0.3s-0.4-0.1-0.7-0.2c-0.1,0-0.2,0-0.3-0.1
			c-0.6-0.2-1.1-0.4-1.6-0.6c-0.4-0.3-0.7-0.7-0.7-1.3c0-0.4,0.1-0.7,0.2-1s0.5-0.6,0.8-0.7c0.4-0.2,0.8-0.3,1.2-0.3
			c0.5,0,0.9,0,1.3,0.2c0.4,0.2,0.7,0.4,1,0.7c0.3,0.3,0.4,0.7,0.4,1.1c0,0,0,0.1,0,0.1c0,0.1,0,0.1,0,0.1c0,0-0.1,0.1-0.1,0.1
			c-0.5,0-1,0.1-1.4,0.1c-0.1,0-0.1,0-0.1,0c0,0-0.1-0.1-0.1-0.1l0,0c0-0.2-0.1-0.3-0.3-0.5c-0.2-0.1-0.4-0.2-0.7-0.2
			c-0.2,0-0.4,0.1-0.5,0.2c-0.1,0.1-0.2,0.2-0.2,0.3c0,0.1,0.1,0.2,0.2,0.3c0.1,0.1,0.2,0.1,0.4,0.2c0.2,0.1,0.5,0.1,0.8,0.2
			c0.1,0,0.3,0.1,0.7,0.2c0.4,0.1,0.7,0.3,1,0.6c0.3,0.3,0.4,0.6,0.5,1s-0.1,0.8-0.3,1.1c-0.2,0.3-0.5,0.6-0.8,0.7
			c-0.4,0.2-0.8,0.3-1.3,0.3C44.7,71.6,44.3,71.6,43.9,71.4z"/>
		<path class="st0" d="M48.8,71.3c0,0-0.1-0.1-0.1-0.1c-0.1-2-0.2-4.1-0.4-6.1c0-0.1,0-0.1,0-0.1c0,0,0.1-0.1,0.1-0.1
			c0.5,0,1-0.1,1.5-0.1c0.1,0,0.1,0,0.1,0c0,0,0.1,0.1,0.1,0.1c0.1,2,0.2,4.1,0.3,6.1c0,0.1,0,0.1,0,0.1c0,0-0.1,0.1-0.1,0.1
			c-0.5,0-1,0.1-1.4,0.1C48.8,71.3,48.8,71.3,48.8,71.3z"/>
		<path class="st0" d="M56.2,64.6c0,0,0.1,0.1,0.1,0.1c0,0.4,0,0.8,0.1,1.2c0,0.1,0,0.1,0,0.1c0,0-0.1,0.1-0.1,0.1
			c-0.5,0-1,0.1-1.5,0.1c0,0-0.1,0-0.1,0.1c0.1,1.6,0.1,3.1,0.2,4.7c0,0.1,0,0.1,0,0.1c0,0-0.1,0.1-0.1,0.1c-0.5,0-1,0.1-1.4,0.1
			c-0.1,0-0.1,0-0.1,0c0,0-0.1-0.1-0.1-0.1c-0.1-1.6-0.2-3.1-0.2-4.7c0,0,0-0.1-0.1-0.1c-0.5,0-1,0.1-1.5,0.1c-0.1,0-0.1,0-0.1,0
			c0,0-0.1-0.1-0.1-0.1c0-0.4-0.1-0.8-0.1-1.2c0-0.1,0-0.1,0-0.1c0,0,0.1-0.1,0.1-0.1C52.9,64.8,54.5,64.7,56.2,64.6
			C56.2,64.6,56.2,64.6,56.2,64.6z"/>
		<path class="st0" d="M61.9,65.8c0,0-0.1,0-0.1,0.1c-0.9,0-1.8,0.1-2.8,0.1c0,0-0.1,0-0.1,0.1c0,0.3,0,0.6,0,0.9c0,0,0,0.1,0.1,0.1
			c0.6,0,1.1,0,1.7-0.1c0.1,0,0.1,0,0.1,0c0,0,0.1,0.1,0.1,0.1c0,0.4,0,0.8,0,1.2c0,0.1,0,0.1,0,0.1c0,0-0.1,0.1-0.1,0.1
			c-0.6,0-1.1,0-1.7,0.1c0,0-0.1,0-0.1,0.1c0,0.3,0,0.6,0,0.9c0,0,0,0.1,0.1,0.1c0.9,0,1.8-0.1,2.7-0.1c0.1,0,0.1,0,0.1,0
			c0,0,0.1,0.1,0.1,0.1c0,0.4,0,0.8,0,1.2c0,0.1,0,0.1,0,0.1c0,0-0.1,0-0.1,0.1c-1.4,0.1-2.9,0.1-4.3,0.1c-0.1,0-0.1,0-0.1,0
			c0,0-0.1-0.1-0.1-0.1c-0.1-2-0.2-4.1-0.2-6.1c0-0.1,0-0.1,0-0.1c0,0,0.1-0.1,0.1-0.1c1.5-0.1,3-0.1,4.4-0.2c0.1,0,0.1,0,0.1,0
			c0,0,0.1,0.1,0.1,0.1c0,0.4,0,0.8,0,1.2C62,65.7,62,65.8,61.9,65.8z"/>
		<path class="st0" d="M66.5,70.5c-0.4-0.2-0.7-0.5-0.9-0.8c-0.2-0.4-0.3-0.8-0.4-1.3c0-0.6,0-1.1,0-1.7c0-0.5,0.1-0.9,0.3-1.3
			c0.2-0.4,0.5-0.7,0.9-0.9c0.4-0.2,0.8-0.3,1.4-0.3c0.5,0,1,0.1,1.4,0.3c0.4,0.2,0.7,0.5,0.9,0.8c0.2,0.4,0.3,0.8,0.3,1.3
			c0,0.6,0,1.1,0,1.7c0,0.5-0.1,0.9-0.3,1.3c-0.2,0.4-0.5,0.7-0.9,0.9c-0.4,0.2-0.8,0.3-1.3,0.3C67.4,70.7,66.9,70.7,66.5,70.5z
			 M68.5,69c0.2-0.2,0.2-0.4,0.2-0.7c0-0.6,0-1.2,0-1.8c0-0.3-0.1-0.5-0.3-0.7c-0.2-0.2-0.4-0.3-0.6-0.3s-0.5,0.1-0.6,0.3
			c-0.2,0.2-0.2,0.4-0.2,0.7c0,0.6,0,1.2,0,1.8c0,0.3,0.1,0.5,0.3,0.7c0.2,0.2,0.4,0.3,0.6,0.3C68.1,69.3,68.3,69.2,68.5,69z"/>
		<path class="st0" d="M76.2,65.7c0,0-0.1,0-0.1,0c-0.9,0-1.8,0-2.8,0c0,0-0.1,0-0.1,0.1c0,0.3,0,0.6,0,0.9c0,0,0,0.1,0.1,0.1
			c0.6,0,1.1,0,1.7,0c0.1,0,0.1,0,0.1,0c0,0,0,0.1,0,0.1c0,0.4,0,0.8,0,1.2c0,0.1,0,0.1,0,0.1c0,0-0.1,0-0.1,0c-0.6,0-1.1,0-1.7,0
			c0,0-0.1,0-0.1,0.1c0,0.8,0,1.5,0,2.3c0,0.1,0,0.1,0,0.1c0,0-0.1,0-0.1,0c-0.5,0-1,0-1.4,0c-0.1,0-0.1,0-0.1,0c0,0,0-0.1,0-0.1
			c0-2,0-4.1,0-6.1c0-0.1,0-0.1,0-0.1c0,0,0.1,0,0.1,0c1.5,0,2.9,0,4.4,0c0.1,0,0.1,0,0.1,0c0,0,0,0.1,0,0.1c0,0.4,0,0.8,0,1.2
			C76.2,65.6,76.2,65.7,76.2,65.7z"/>
		<path class="st0" d="M84.4,64.4c0,0,0,0.1,0,0.1c0,0.4,0,0.8,0,1.2c0,0.1,0,0.1-0.1,0.1c0,0-0.1,0-0.1,0c-0.5,0-1,0-1.5-0.1
			c0,0-0.1,0-0.1,0.1c-0.1,1.6-0.1,3.1-0.1,4.7c0,0.1,0,0.1-0.1,0.1c0,0-0.1,0-0.1,0c-0.5,0-1,0-1.4,0c-0.1,0-0.1,0-0.1-0.1
			c0,0,0-0.1,0-0.1c0-1.6,0.1-3.1,0.1-4.7c0,0,0-0.1-0.1-0.1c-0.5,0-1,0-1.5,0c-0.1,0-0.1,0-0.1-0.1c0,0,0-0.1,0-0.1
			c0-0.4,0-0.8,0-1.2c0-0.1,0-0.1,0.1-0.1c0,0,0.1,0,0.1,0c1.6,0,3.3,0.1,4.9,0.1C84.3,64.4,84.4,64.4,84.4,64.4z"/>
		<path class="st0" d="M88.7,64.6c0,0,0.1,0,0.1,0c0.5,0,1,0.1,1.5,0.1c0.1,0,0.1,0,0.1,0.1c0,0,0,0.1,0,0.1c-0.1,2-0.2,4.1-0.3,6.1
			c0,0.1,0,0.1-0.1,0.1c0,0-0.1,0-0.1,0c-0.5,0-1-0.1-1.4-0.1c-0.1,0-0.1,0-0.1-0.1c0,0,0-0.1,0-0.1c0-0.8,0.1-1.5,0.1-2.3
			c0,0,0-0.1-0.1-0.1c-0.5,0-1,0-1.4-0.1c0,0-0.1,0-0.1,0.1c0,0.8-0.1,1.5-0.1,2.3c0,0.1,0,0.1-0.1,0.1c0,0-0.1,0-0.1,0
			c-0.5,0-1,0-1.4-0.1c-0.1,0-0.1,0-0.1-0.1c0,0,0-0.1,0-0.1c0.1-2,0.1-4.1,0.2-6.1c0-0.1,0-0.1,0.1-0.1c0,0,0.1,0,0.1,0
			c0.5,0,1,0,1.5,0.1c0.1,0,0.1,0,0.1,0.1c0,0,0,0.1,0,0.1c0,0.7-0.1,1.5-0.1,2.2c0,0,0,0.1,0.1,0.1c0.5,0,1,0,1.4,0.1
			c0,0,0.1,0,0.1-0.1c0-0.7,0.1-1.5,0.1-2.2C88.7,64.7,88.7,64.6,88.7,64.6z"/>
		<path class="st0" d="M96.1,66.3c0,0-0.1,0-0.1,0c-0.9-0.1-1.8-0.1-2.8-0.2c0,0-0.1,0-0.1,0.1c0,0.3,0,0.6-0.1,0.9
			c0,0,0,0.1,0.1,0.1c0.6,0,1.1,0.1,1.7,0.1c0.1,0,0.1,0,0.1,0.1c0,0,0,0.1,0,0.1c0,0.4-0.1,0.8-0.1,1.2c0,0.1,0,0.1-0.1,0.1
			c0,0-0.1,0-0.1,0c-0.6,0-1.1-0.1-1.7-0.1c0,0-0.1,0-0.1,0.1c0,0.3,0,0.6-0.1,0.9c0,0,0,0.1,0.1,0.1c0.9,0.1,1.8,0.1,2.7,0.2
			c0.1,0,0.1,0,0.1,0.1c0,0,0,0.1,0,0.1c0,0.4-0.1,0.8-0.1,1.2c0,0.1,0,0.1-0.1,0.1c0,0-0.1,0-0.1,0c-1.4-0.1-2.9-0.2-4.3-0.2
			c-0.1,0-0.1,0-0.1-0.1c0,0,0-0.1,0-0.1c0.1-2,0.2-4.1,0.3-6.1c0-0.1,0-0.1,0.1-0.1c0,0,0.1,0,0.1,0c1.5,0.1,2.9,0.2,4.4,0.2
			c0.1,0,0.1,0,0.1,0.1c0,0,0,0.1,0,0.1C96.2,65.5,96.1,65.9,96.1,66.3C96.1,66.3,96.1,66.3,96.1,66.3z"/>
		<path class="st0" d="M100.9,71.5c0,0,0-0.1,0-0.1c0.1-0.7,0.1-1.3,0.2-2c0,0,0,0,0-0.1c-0.5-1.4-1.1-2.7-1.6-4.1c0,0,0-0.1,0-0.1
			c0-0.1,0.1-0.1,0.1-0.1c0.5,0,1.1,0.1,1.6,0.1c0.1,0,0.1,0.1,0.2,0.1c0.3,0.7,0.5,1.5,0.7,2.2c0,0.1,0,0.1,0.1,0
			c0.4-0.7,0.7-1.4,1-2.1c0-0.1,0.1-0.1,0.2-0.1c0.5,0.1,1.1,0.1,1.6,0.1c0.1,0,0.1,0.1,0.1,0.1c0,0,0,0.1,0,0.1
			c-0.7,1.3-1.5,2.6-2.2,3.8c0,0,0,0,0,0.1c-0.1,0.7-0.1,1.3-0.2,2c0,0.1,0,0.1-0.1,0.1s-0.1,0-0.1,0
			C101.9,71.7,101.5,71.6,100.9,71.5C101,71.6,101,71.6,100.9,71.5z"/>
		<path class="st0" d="M110.6,67.5c0,0-0.1,0-0.1,0c-0.9-0.1-1.8-0.2-2.8-0.3c0,0-0.1,0-0.1,0.1c0,0.3-0.1,0.6-0.1,0.9
			c0,0,0,0.1,0.1,0.1c0.6,0.1,1.1,0.1,1.7,0.2c0.1,0,0.1,0,0.1,0.1c0,0,0,0.1,0,0.1c0,0.4-0.1,0.8-0.1,1.2c0,0.1,0,0.1-0.1,0.1
			c0,0-0.1,0-0.1,0c-0.6-0.1-1.1-0.1-1.7-0.2c0,0-0.1,0-0.1,0.1c0,0.3-0.1,0.6-0.1,0.9c0,0,0,0.1,0.1,0.1c0.9,0.1,1.8,0.2,2.7,0.3
			c0.1,0,0.1,0,0.1,0.1c0,0,0,0.1,0,0.1c0,0.4-0.1,0.8-0.1,1.2c0,0.1,0,0.1-0.1,0.1c0,0-0.1,0-0.1,0c-1.4-0.1-2.9-0.3-4.3-0.4
			c-0.1,0-0.1,0-0.1-0.1c0,0,0-0.1,0-0.1c0.2-2,0.3-4,0.5-6.1c0-0.1,0-0.1,0.1-0.1c0,0,0.1,0,0.1,0c1.5,0.1,2.9,0.3,4.4,0.4
			c0.1,0,0.1,0,0.1,0.1c0,0,0,0.1,0,0.1C110.7,66.6,110.7,67,110.6,67.5C110.6,67.4,110.6,67.4,110.6,67.5z"/>
		<path class="st0" d="M115.3,72.8c-0.1-0.3-0.1-0.5-0.1-0.7c0,0,0-0.1-0.1-0.1c-0.6-0.1-1.3-0.1-1.9-0.2c0,0,0,0-0.1,0
			c-0.1,0.2-0.2,0.5-0.3,0.7c0,0.1-0.1,0.1-0.2,0.1c-0.5-0.1-1-0.1-1.5-0.2c-0.1,0-0.2-0.1-0.1-0.2c0.8-2,1.7-3.9,2.5-5.9
			c0-0.1,0.1-0.1,0.2-0.1c0.7,0.1,1.3,0.1,1.9,0.2c0.1,0,0.1,0.1,0.2,0.1c0.4,2.1,0.9,4.2,1.3,6.3c0,0,0,0,0,0.1
			c0,0.1-0.1,0.1-0.1,0.1c-0.5-0.1-1-0.1-1.5-0.2C115.3,72.9,115.3,72.8,115.3,72.8z M113.7,70.5c0.4,0.1,0.8,0.1,1.1,0.1
			c0,0,0.1,0,0.1-0.1c-0.1-0.7-0.3-1.4-0.4-2.1c0,0,0,0,0,0c0,0,0,0,0,0C114.2,69.2,113.9,69.8,113.7,70.5
			C113.7,70.5,113.7,70.5,113.7,70.5z"/>
		<path class="st0" d="M121.3,73.5c-0.2-0.8-0.5-1.6-0.7-2.4c0,0,0-0.1-0.1-0.1c-0.1,0-0.3,0-0.4-0.1c0,0-0.1,0-0.1,0.1
			c-0.1,0.8-0.2,1.5-0.3,2.2c0,0.1,0,0.1-0.1,0.1c0,0-0.1,0-0.1,0c-0.5-0.1-1-0.1-1.4-0.2c-0.1,0-0.1,0-0.1-0.1c0,0,0-0.1,0-0.1
			c0.2-2,0.5-4,0.7-6.1c0-0.1,0-0.1,0.1-0.1c0,0,0.1,0,0.1,0c0.9,0.1,1.9,0.2,2.8,0.3c0.4,0.1,0.8,0.2,1.1,0.4
			c0.3,0.2,0.5,0.5,0.7,0.8c0.1,0.3,0.2,0.7,0.1,1.1c-0.1,0.4-0.2,0.7-0.4,1c-0.2,0.3-0.5,0.5-0.9,0.6c0,0-0.1,0,0,0.1
			c0.3,0.8,0.6,1.7,0.9,2.5c0,0,0,0.1,0,0.1c0,0,0,0.1-0.1,0.1c0,0-0.1,0-0.1,0c-0.5-0.1-1-0.1-1.5-0.2
			C121.4,73.6,121.3,73.5,121.3,73.5z M120.4,68.6c-0.1,0.4-0.1,0.7-0.1,1.1c0,0,0,0.1,0.1,0.1c0.3,0,0.6,0.1,0.9,0.1
			c0.2,0,0.4,0,0.5-0.1c0.1-0.1,0.2-0.2,0.2-0.4c0-0.2,0-0.3-0.1-0.5s-0.3-0.2-0.5-0.2C121,68.6,120.7,68.5,120.4,68.6
			C120.4,68.5,120.4,68.5,120.4,68.6z"/>
	</g>
</g>
</svg>
