<?xml version="1.0" standalone="no"?>
<!DOCTYPE svg PUBLIC "-//W3C//DTD SVG 20010904//EN"
 "http://www.w3.org/TR/2001/REC-SVG-20010904/DTD/svg10.dtd">
<svg version="1.0" xmlns="http://www.w3.org/2000/svg"
 width="267.000000pt" height="267.000000pt" viewBox="0 0 267.000000 267.000000"
 preserveAspectRatio="xMidYMid meet">
<metadata>
Created by potrace 1.11, written by Peter Selinger 2001-2013
</metadata>
<g transform="translate(0.000000,267.000000) scale(0.100000,-0.100000)"
fill="#000000" stroke="none">
<path d="M1460 2382 c-189 -77 -372 -204 -551 -382 -241 -239 -360 -462 -405
-754 -18 -117 -17 -179 1 -293 18 -109 35 -164 81 -259 139 -284 499 -466 841
-423 562 69 881 558 721 1104 -45 153 -98 234 -275 418 -205 214 -241 289
-228 477 6 92 4 109 -10 124 -25 24 -99 19 -175 -12z"/>
</g>
</svg>
